<svg width="168" height="242" viewBox="0 0 168 242" fill="none" xmlns="http://www.w3.org/2000/svg">
<path d="M166 4C167.105 4 168 3.10457 168 2C168 0.895431 167.105 0 166 0V4ZM7 2V0C5.91144 0 5.02278 0.870596 5.00042 1.95893C4.97807 3.04726 5.83023 3.95362 6.91788 3.99831L7 2ZM81 240L79.0001 239.986L78.9856 242H81V240ZM166 242C167.105 242 168 241.105 168 240C168 238.895 167.105 238 166 238V242ZM7 238C5.89543 238 5 238.895 5 240C5 241.105 5.89543 242 7 242V238ZM166 0H7V4H166V0ZM6.91788 3.99831C18.8903 4.49033 36.8872 7.59936 51.9171 15.257C66.9258 22.9039 78.6218 34.869 79.0004 53.0417L82.9996 52.9583C82.5782 32.731 69.4409 19.6961 53.7329 11.693C38.0462 3.70063 19.4431 0.50967 7.08212 0.00168674L6.91788 3.99831ZM79.0004 53.0417C79.7997 91.4073 79.3335 193.642 79.0001 239.986L82.9999 240.014C83.3332 193.692 83.8003 91.3927 82.9996 52.9583L79.0004 53.0417ZM81 242H166V238H81V242ZM166 238H7V242H166V238Z" fill="white"/>
<path d="M86.5 59L87.5677 57.3088C86.9515 56.9198 86.1726 56.8967 85.5344 57.2485C84.8963 57.6003 84.5 58.2713 84.5 59H86.5ZM150.5 99.4058L151.47 101.155C152.088 100.812 152.479 100.169 152.499 99.4628C152.519 98.7564 152.165 98.0919 151.568 97.7146L150.5 99.4058ZM85.4323 60.6912L149.432 101.097L151.568 97.7146L87.5677 57.3088L85.4323 60.6912ZM84.5 59V134.884H88.5V59H84.5ZM86.5 134.884C84.5 134.884 84.5 134.884 84.5 134.885C84.5 134.885 84.5 134.886 84.5 134.887C84.5 134.888 84.5 134.889 84.5 134.891C84.5 134.892 84.5 134.894 84.5 134.896C84.5 134.898 84.5 134.9 84.5 134.902C84.5 134.905 84.5 134.907 84.5 134.91C84.5 134.913 84.5 134.916 84.5 134.92C84.5 134.923 84.5 134.927 84.5 134.93C84.5 134.934 84.5 134.938 84.5 134.943C84.5 134.947 84.5 134.952 84.5 134.956C84.5 134.961 84.5 134.966 84.5 134.971C84.5 134.977 84.5 134.982 84.5 134.988C84.5 134.994 84.5 135 84.5 135.006C84.5 135.012 84.5 135.019 84.5 135.025C84.5 135.032 84.5 135.039 84.5 135.046C84.5 135.053 84.5 135.061 84.5 135.068C84.5 135.076 84.5 135.084 84.5 135.092C84.5 135.1 84.5 135.108 84.5 135.117C84.5 135.125 84.5 135.134 84.5 135.143C84.5 135.152 84.5 135.161 84.5 135.171C84.5 135.18 84.5 135.19 84.5 135.2C84.5 135.21 84.5 135.22 84.5 135.23C84.5 135.241 84.5 135.251 84.5 135.262C84.5 135.273 84.5 135.284 84.5 135.295C84.5 135.307 84.5 135.318 84.5 135.33C84.5 135.342 84.5 135.354 84.5 135.366C84.5 135.378 84.5 135.391 84.5 135.403C84.5 135.416 84.5 135.429 84.5 135.442C84.5 135.455 84.5 135.468 84.5 135.482C84.5 135.496 84.5 135.509 84.5 135.523C84.5 135.537 84.5 135.552 84.5 135.566C84.5 135.581 84.5 135.595 84.5 135.61C84.5 135.625 84.5 135.64 84.5 135.655C84.5 135.671 84.5 135.686 84.5 135.702C84.5 135.718 84.5 135.734 84.5 135.75C84.5 135.766 84.5 135.783 84.5 135.8C84.5 135.816 84.5 135.833 84.5 135.85C84.5 135.867 84.5 135.885 84.5 135.902C84.5 135.92 84.5 135.938 84.5 135.956C84.5 135.974 84.5 135.992 84.5 136.01C84.5 136.029 84.5 136.047 84.5 136.066C84.5 136.085 84.5 136.104 84.5 136.123C84.5 136.143 84.5 136.162 84.5 136.182C84.5 136.202 84.5 136.222 84.5 136.242C84.5 136.262 84.5 136.282 84.5 136.303C84.5 136.323 84.5 136.344 84.5 136.365C84.5 136.386 84.5 136.407 84.5 136.429C84.5 136.45 84.5 136.472 84.5 136.494C84.5 136.516 84.5 136.538 84.5 136.56C84.5 136.582 84.5 136.605 84.5 136.628C84.5 136.65 84.5 136.673 84.5 136.696C84.5 136.719 84.5 136.743 84.5 136.766C84.5 136.79 84.5 136.814 84.5 136.838C84.5 136.862 84.5 136.886 84.5 136.91C84.5 136.935 84.5 136.959 84.5 136.984C84.5 137.009 84.5 137.034 84.5 137.059C84.5 137.084 84.5 137.11 84.5 137.135C84.5 137.161 84.5 137.187 84.5 137.213C84.5 137.239 84.5 137.265 84.5 137.291C84.5 137.318 84.5 137.345 84.5 137.371C84.5 137.398 84.5 137.425 84.5 137.453C84.5 137.48 84.5 137.507 84.5 137.535C84.5 137.563 84.5 137.591 84.5 137.619C84.5 137.647 84.5 137.675 84.5 137.704C84.5 137.732 84.5 137.761 84.5 137.79C84.5 137.819 84.5 137.848 84.5 137.877C84.5 137.906 84.5 137.936 84.5 137.965C84.5 137.995 84.5 138.025 84.5 138.055C84.5 138.085 84.5 138.115 84.5 138.146C84.5 138.176 84.5 138.207 84.5 138.238C84.5 138.269 84.5 138.3 84.5 138.331C84.5 138.363 84.5 138.394 84.5 138.426C84.5 138.457 84.5 138.489 84.5 138.521C84.5 138.553 84.5 138.586 84.5 138.618C84.5 138.651 84.5 138.683 84.5 138.716C84.5 138.749 84.5 138.782 84.5 138.815C84.5 138.849 84.5 138.882 84.5 138.916C84.5 138.949 84.5 138.983 84.5 139.017C84.5 139.051 84.5 139.085 84.5 139.12C84.5 139.154 84.5 139.189 84.5 139.223C84.5 139.258 84.5 139.293 84.5 139.328C84.5 139.364 84.5 139.399 84.5 139.434C84.5 139.47 84.5 139.506 84.5 139.542C84.5 139.578 84.5 139.614 84.5 139.65C84.5 139.686 84.5 139.723 84.5 139.759C84.5 139.796 84.5 139.833 84.5 139.87C84.5 139.907 84.5 139.944 84.5 139.982C84.5 140.019 84.5 140.057 84.5 140.095C84.5 140.133 84.5 140.171 84.5 140.209C84.5 140.247 84.5 140.285 84.5 140.324C84.5 140.362 84.5 140.401 84.5 140.44C84.5 140.479 84.5 140.518 84.5 140.557C84.5 140.597 84.5 140.636 84.5 140.676C84.5 140.715 84.5 140.755 84.5 140.795C84.5 140.835 84.5 140.875 84.5 140.916C84.5 140.956 84.5 140.997 84.5 141.038C84.5 141.078 84.5 141.119 84.5 141.16C84.5 141.201 84.5 141.243 84.5 141.284C84.5 141.326 84.5 141.367 84.5 141.409C84.5 141.451 84.5 141.493 84.5 141.535C84.5 141.577 84.5 141.62 84.5 141.662C84.5 141.705 84.5 141.748 84.5 141.79C84.5 141.833 84.5 141.876 84.5 141.92C84.5 141.963 84.5 142.006 84.5 142.05C84.5 142.094 84.5 142.137 84.5 142.181C84.5 142.225 84.5 142.269 84.5 142.314C84.5 142.358 84.5 142.403 84.5 142.447C84.5 142.492 84.5 142.537 84.5 142.582C84.5 142.627 84.5 142.672 84.5 142.717C84.5 142.763 84.5 142.808 84.5 142.854C84.5 142.899 84.5 142.945 84.5 142.991C84.5 143.037 84.5 143.084 84.5 143.13C84.5 143.176 84.5 143.223 84.5 143.27C84.5 143.316 84.5 143.363 84.5 143.41C84.5 143.457 84.5 143.505 84.5 143.552C84.5 143.599 84.5 143.647 84.5 143.695C84.5 143.743 84.5 143.79 84.5 143.839C84.5 143.887 84.5 143.935 84.5 143.983C84.5 144.032 84.5 144.08 84.5 144.129C84.5 144.178 84.5 144.227 84.5 144.276C84.5 144.325 84.5 144.374 84.5 144.423C84.5 144.473 84.5 144.522 84.5 144.572C84.5 144.622 84.5 144.672 84.5 144.722C84.5 144.772 84.5 144.822 84.5 144.873C84.5 144.923 84.5 144.974 84.5 145.024C84.5 145.075 84.5 145.126 84.5 145.177C84.5 145.228 84.5 145.279 84.5 145.33C84.5 145.382 84.5 145.433 84.5 145.485C84.5 145.537 84.5 145.589 84.5 145.641C84.5 145.693 84.5 145.745 84.5 145.797C84.5 145.849 84.5 145.902 84.5 145.955C84.5 146.007 84.5 146.06 84.5 146.113C84.5 146.166 84.5 146.219 84.5 146.272C84.5 146.326 84.5 146.379 84.5 146.433C84.5 146.486 84.5 146.54 84.5 146.594C84.5 146.648 84.5 146.702 84.5 146.756C84.5 146.81 84.5 146.865 84.5 146.919C84.5 146.974 84.5 147.028 84.5 147.083C84.5 147.138 84.5 147.193 84.5 147.248C84.5 147.303 84.5 147.359 84.5 147.414C84.5 147.469 84.5 147.525 84.5 147.581C84.5 147.637 84.5 147.693 84.5 147.749C84.5 147.805 84.5 147.861 84.5 147.917C84.5 147.974 84.5 148.03 84.5 148.087C84.5 148.143 84.5 148.2 84.5 148.257C84.5 148.314 84.5 148.371 84.5 148.428C84.5 148.486 84.5 148.543 84.5 148.601C84.5 148.658 84.5 148.716 84.5 148.774C84.5 148.832 84.5 148.89 84.5 148.948C84.5 149.006 84.5 149.064 84.5 149.123C84.5 149.181 84.5 149.24 84.5 149.298C84.5 149.357 84.5 149.416 84.5 149.475C84.5 149.534 84.5 149.593 84.5 149.653C84.5 149.712 84.5 149.771 84.5 149.831C84.5 149.891 84.5 149.95 84.5 150.01C84.5 150.07 84.5 150.13 84.5 150.19C84.5 150.25 84.5 150.311 84.5 150.371C84.5 150.432 84.5 150.492 84.5 150.553C84.5 150.614 84.5 150.675 84.5 150.736C84.5 150.797 84.5 150.858 84.5 150.919C84.5 150.98 84.5 151.042 84.5 151.103C84.5 151.165 84.5 151.227 84.5 151.289C84.5 151.35 84.5 151.412 84.5 151.475C84.5 151.537 84.5 151.599 84.5 151.661C84.5 151.724 84.5 151.786 84.5 151.849C84.5 151.912 84.5 151.975 84.5 152.038C84.5 152.101 84.5 152.164 84.5 152.227C84.5 152.29 84.5 152.353 84.5 152.417C84.5 152.48 84.5 152.544 84.5 152.608C84.5 152.672 84.5 152.736 84.5 152.8C84.5 152.864 84.5 152.928 84.5 152.992C84.5 153.056 84.5 153.121 84.5 153.185C84.5 153.25 84.5 153.315 84.5 153.379C84.5 153.444 84.5 153.509 84.5 153.574C84.5 153.639 84.5 153.705 84.5 153.77C84.5 153.835 84.5 153.901 84.5 153.966C84.5 154.032 84.5 154.098 84.5 154.164C84.5 154.23 84.5 154.296 84.5 154.362C84.5 154.428 84.5 154.494 84.5 154.56C84.5 154.627 84.5 154.693 84.5 154.76C84.5 154.827 84.5 154.893 84.5 154.96C84.5 155.027 84.5 155.094 84.5 155.161C84.5 155.229 84.5 155.296 84.5 155.363C84.5 155.431 84.5 155.498 84.5 155.566C84.5 155.633 84.5 155.701 84.5 155.769C84.5 155.837 84.5 155.905 84.5 155.973C84.5 156.041 84.5 156.11 84.5 156.178C84.5 156.246 84.5 156.315 84.5 156.383C84.5 156.452 84.5 156.521 84.5 156.59C84.5 156.659 84.5 156.728 84.5 156.797C84.5 156.866 84.5 156.935 84.5 157.004C84.5 157.074 84.5 157.143 84.5 157.213C84.5 157.282 84.5 157.352 84.5 157.422C84.5 157.492 84.5 157.562 84.5 157.632C84.5 157.702 84.5 157.772 84.5 157.842C84.5 157.913 84.5 157.983 84.5 158.054C84.5 158.124 84.5 158.195 84.5 158.266C84.5 158.336 84.5 158.407 84.5 158.478C84.5 158.549 84.5 158.62 84.5 158.692C84.5 158.763 84.5 158.834 84.5 158.906C84.5 158.977 84.5 159.049 84.5 159.12C84.5 159.192 84.5 159.264 84.5 159.336C84.5 159.408 84.5 159.48 84.5 159.552C84.5 159.624 84.5 159.696 84.5 159.769C84.5 159.841 84.5 159.914 84.5 159.986C84.5 160.059 84.5 160.131 84.5 160.204C84.5 160.277 84.5 160.35 84.5 160.423C84.5 160.496 84.5 160.569 84.5 160.642C84.5 160.716 84.5 160.789 84.5 160.862C84.5 160.936 84.5 161.01 84.5 161.083C84.5 161.157 84.5 161.231 84.5 161.305C84.5 161.378 84.5 161.452 84.5 161.527C84.5 161.601 84.5 161.675 84.5 161.749C84.5 161.824 84.5 161.898 84.5 161.972C84.5 162.047 84.5 162.122 84.5 162.196C84.5 162.271 84.5 162.346 84.5 162.421C84.5 162.496 84.5 162.571 84.5 162.646C84.5 162.721 84.5 162.796 84.5 162.872C84.5 162.947 84.5 163.023 84.5 163.098C84.5 163.174 84.5 163.249 84.5 163.325C84.5 163.401 84.5 163.477 84.5 163.553C84.5 163.629 84.5 163.705 84.5 163.781C84.5 163.857 84.5 163.933 84.5 164.01C84.5 164.086 84.5 164.163 84.5 164.239C84.5 164.316 84.5 164.392 84.5 164.469C84.5 164.546 84.5 164.623 84.5 164.7C84.5 164.777 84.5 164.854 84.5 164.931C84.5 165.008 84.5 165.085 84.5 165.163C84.5 165.24 84.5 165.318 84.5 165.395C84.5 165.473 84.5 165.55 84.5 165.628C84.5 165.706 84.5 165.784 84.5 165.861C84.5 165.939 84.5 166.017 84.5 166.095C84.5 166.174 84.5 166.252 84.5 166.33C84.5 166.408 84.5 166.487 84.5 166.565C84.5 166.644 84.5 166.722 84.5 166.801C84.5 166.88 84.5 166.958 84.5 167.037C84.5 167.116 84.5 167.195 84.5 167.274C84.5 167.353 84.5 167.432 84.5 167.511C84.5 167.59 84.5 167.67 84.5 167.749C84.5 167.829 84.5 167.908 84.5 167.988C84.5 168.067 84.5 168.147 84.5 168.226C84.5 168.306 84.5 168.386 84.5 168.466C84.5 168.546 84.5 168.626 84.5 168.706C84.5 168.786 84.5 168.866 84.5 168.946C84.5 169.027 84.5 169.107 84.5 169.187C84.5 169.268 84.5 169.348 84.5 169.429C84.5 169.51 84.5 169.59 84.5 169.671C84.5 169.752 84.5 169.833 84.5 169.914C84.5 169.994 84.5 170.075 84.5 170.157C84.5 170.238 84.5 170.319 84.5 170.4C84.5 170.481 84.5 170.563 84.5 170.644C84.5 170.725 84.5 170.807 84.5 170.889C84.5 170.97 84.5 171.052 84.5 171.134C84.5 171.215 84.5 171.297 84.5 171.379C84.5 171.461 84.5 171.543 84.5 171.625C84.5 171.707 84.5 171.789 84.5 171.871C84.5 171.954 84.5 172.036 84.5 172.118C84.5 172.201 84.5 172.283 84.5 172.366C84.5 172.448 84.5 172.531 84.5 172.613C84.5 172.696 84.5 172.779 84.5 172.862C84.5 172.944 84.5 173.027 84.5 173.11C84.5 173.193 84.5 173.276 84.5 173.36C84.5 173.443 84.5 173.526 84.5 173.609C84.5 173.692 84.5 173.776 84.5 173.859C84.5 173.943 84.5 174.026 84.5 174.11C84.5 174.193 84.5 174.277 84.5 174.361C84.5 174.444 84.5 174.528 84.5 174.612C84.5 174.696 84.5 174.78 84.5 174.864C84.5 174.948 84.5 175.032 84.5 175.116C84.5 175.2 84.5 175.284 84.5 175.368C84.5 175.453 84.5 175.537 84.5 175.621C84.5 175.706 84.5 175.79 84.5 175.875C84.5 175.959 84.5 176.044 84.5 176.129C84.5 176.213 84.5 176.298 84.5 176.383C84.5 176.468 84.5 176.553 84.5 176.638C84.5 176.723 84.5 176.808 84.5 176.893C84.5 176.978 84.5 177.063 84.5 177.148C84.5 177.233 84.5 177.319 84.5 177.404C84.5 177.489 84.5 177.575 84.5 177.66C84.5 177.745 84.5 177.831 84.5 177.917C84.5 178.002 84.5 178.088 84.5 178.174C84.5 178.259 84.5 178.345 84.5 178.431C84.5 178.517 84.5 178.603 84.5 178.689C84.5 178.774 84.5 178.86 84.5 178.947C84.5 179.033 84.5 179.119 84.5 179.205C84.5 179.291 84.5 179.377 84.5 179.464C84.5 179.55 84.5 179.636 84.5 179.723C84.5 179.809 84.5 179.896 84.5 179.982C84.5 180.069 84.5 180.155 84.5 180.242C84.5 180.329 84.5 180.415 84.5 180.502C84.5 180.589 84.5 180.676 84.5 180.763C84.5 180.85 84.5 180.936 84.5 181.023C84.5 181.11 84.5 181.198 84.5 181.285C84.5 181.372 84.5 181.459 84.5 181.546C84.5 181.633 84.5 181.721 84.5 181.808C84.5 181.895 84.5 181.983 84.5 182.07C84.5 182.157 84.5 182.245 84.5 182.332C84.5 182.42 84.5 182.507 84.5 182.595C84.5 182.683 84.5 182.77 84.5 182.858C84.5 182.946 84.5 183.034 84.5 183.121C84.5 183.209 84.5 183.297 84.5 183.385C84.5 183.473 84.5 183.561 84.5 183.649C84.5 183.737 84.5 183.825 84.5 183.913C84.5 184.001 84.5 184.089 84.5 184.178C84.5 184.266 84.5 184.354 84.5 184.442C84.5 184.531 84.5 184.619 84.5 184.707C84.5 184.796 84.5 184.884 84.5 184.973C84.5 185.061 84.5 185.15 84.5 185.238C84.5 185.327 84.5 185.415 84.5 185.504C84.5 185.593 84.5 185.682 84.5 185.77C84.5 185.859 84.5 185.948 84.5 186.037C84.5 186.125 84.5 186.214 84.5 186.303C84.5 186.392 84.5 186.481 84.5 186.57C84.5 186.659 84.5 186.748 84.5 186.837C84.5 186.926 84.5 187.015 84.5 187.105C84.5 187.194 84.5 187.283 84.5 187.372C84.5 187.461 84.5 187.551 84.5 187.64C84.5 187.729 84.5 187.819 84.5 187.908C84.5 187.998 84.5 188.087 84.5 188.176C84.5 188.266 84.5 188.355 84.5 188.445C84.5 188.535 84.5 188.624 84.5 188.714C84.5 188.803 84.5 188.893 84.5 188.983C84.5 189.072 84.5 189.162 84.5 189.252C84.5 189.342 84.5 189.431 84.5 189.521C84.5 189.611 84.5 189.701 84.5 189.791C84.5 189.881 84.5 189.971 84.5 190.061C84.5 190.151 84.5 190.241 84.5 190.331C84.5 190.421 84.5 190.511 84.5 190.601C84.5 190.691 84.5 190.781 84.5 190.871C84.5 190.961 84.5 191.051 84.5 191.142C84.5 191.232 84.5 191.322 84.5 191.412C84.5 191.503 84.5 191.593 84.5 191.683C84.5 191.774 84.5 191.864 84.5 191.954C84.5 192.045 84.5 192.135 84.5 192.226C84.5 192.316 84.5 192.407 84.5 192.497C84.5 192.588 84.5 192.678 84.5 192.769C84.5 192.859 84.5 192.95 84.5 193.04C84.5 193.131 84.5 193.222 84.5 193.312C84.5 193.403 84.5 193.494 84.5 193.584C84.5 193.675 84.5 193.766 84.5 193.856C84.5 193.947 84.5 194.038 84.5 194.129C84.5 194.22 84.5 194.31 84.5 194.401C84.5 194.492 84.5 194.583 84.5 194.674C84.5 194.765 84.5 194.856 84.5 194.947C84.5 195.037 84.5 195.128 84.5 195.219C84.5 195.31 84.5 195.401 84.5 195.492C84.5 195.583 84.5 195.674 84.5 195.765C84.5 195.856 84.5 195.948 84.5 196.039C84.5 196.13 84.5 196.221 84.5 196.312C84.5 196.403 84.5 196.494 84.5 196.585C84.5 196.677 84.5 196.768 84.5 196.859C84.5 196.95 84.5 197.041 84.5 197.133C84.5 197.224 84.5 197.315 84.5 197.406C84.5 197.498 84.5 197.589 84.5 197.68C84.5 197.771 84.5 197.863 84.5 197.954C84.5 198.045 84.5 198.137 84.5 198.228C84.5 198.319 84.5 198.411 84.5 198.502C84.5 198.593 84.5 198.685 84.5 198.776C84.5 198.868 84.5 198.959 84.5 199.05C84.5 199.142 84.5 199.233 84.5 199.325C84.5 199.416 84.5 199.508 84.5 199.599C84.5 199.691 84.5 199.782 84.5 199.873C84.5 199.965 84.5 200.056 84.5 200.148C84.5 200.239 84.5 200.331 84.5 200.422C84.5 200.514 84.5 200.605 84.5 200.697C84.5 200.789 84.5 200.88 84.5 200.972C84.5 201.063 84.5 201.155 84.5 201.246C84.5 201.338 84.5 201.429 84.5 201.521C84.5 201.613 84.5 201.704 84.5 201.796C84.5 201.887 84.5 201.979 84.5 202.07C84.5 202.162 84.5 202.254 84.5 202.345C84.5 202.437 84.5 202.528 84.5 202.62C84.5 202.712 84.5 202.803 84.5 202.895C84.5 202.986 84.5 203.078 84.5 203.17C84.5 203.261 84.5 203.353 84.5 203.445C84.5 203.536 84.5 203.628 84.5 203.719C84.5 203.811 84.5 203.903 84.5 203.994C84.5 204.086 84.5 204.178 84.5 204.269C84.5 204.361 84.5 204.452 84.5 204.544C84.5 204.636 84.5 204.727 84.5 204.819C84.5 204.91 84.5 205.002 84.5 205.094C84.5 205.185 84.5 205.277 84.5 205.368C84.5 205.46 84.5 205.552 84.5 205.643C84.5 205.735 84.5 205.826 84.5 205.918C84.5 206.01 84.5 206.101 84.5 206.193C84.5 206.284 84.5 206.376 84.5 206.467C84.5 206.559 84.5 206.651 84.5 206.742C84.5 206.834 84.5 206.925 84.5 207.017C84.5 207.108 84.5 207.2 84.5 207.291C84.5 207.383 84.5 207.474 84.5 207.566C84.5 207.657 84.5 207.749 84.5 207.84C84.5 207.932 84.5 208.023 84.5 208.115C84.5 208.206 84.5 208.298 84.5 208.389C84.5 208.481 84.5 208.572 84.5 208.664C84.5 208.755 84.5 208.846 84.5 208.938C84.5 209.029 84.5 209.121 84.5 209.212C84.5 209.303 84.5 209.395 84.5 209.486C84.5 209.577 84.5 209.669 84.5 209.76C84.5 209.851 84.5 209.943 84.5 210.034C84.5 210.125 84.5 210.217 84.5 210.308C84.5 210.399 84.5 210.49 84.5 210.582C84.5 210.673 84.5 210.764 84.5 210.855C84.5 210.946 84.5 211.038 84.5 211.129C84.5 211.22 84.5 211.311 84.5 211.402C84.5 211.493 84.5 211.585 84.5 211.676C84.5 211.767 84.5 211.858 84.5 211.949C84.5 212.04 84.5 212.131 84.5 212.222C84.5 212.313 84.5 212.404 84.5 212.495C84.5 212.586 84.5 212.677 84.5 212.768C84.5 212.859 84.5 212.95 84.5 213.041C84.5 213.132 84.5 213.222 84.5 213.313C84.5 213.404 84.5 213.495 84.5 213.586C84.5 213.677 84.5 213.767 84.5 213.858C84.5 213.949 84.5 214.04 84.5 214.13C84.5 214.221 84.5 214.312 84.5 214.403C84.5 214.493 84.5 214.584 84.5 214.674C84.5 214.765 84.5 214.856 84.5 214.946C84.5 215.037 84.5 215.127 84.5 215.218C84.5 215.308 84.5 215.399 84.5 215.489C84.5 215.58 84.5 215.67 84.5 215.761C84.5 215.851 84.5 215.941 84.5 216.032C84.5 216.122 84.5 216.212 84.5 216.303C84.5 216.393 84.5 216.483 84.5 216.574C84.5 216.664 84.5 216.754 84.5 216.844C84.5 216.934 84.5 217.024 84.5 217.115C84.5 217.205 84.5 217.295 84.5 217.385C84.5 217.475 84.5 217.565 84.5 217.655C84.5 217.745 84.5 217.835 84.5 217.925C84.5 218.015 84.5 218.105 84.5 218.194C84.5 218.284 84.5 218.374 84.5 218.464C84.5 218.554 84.5 218.643 84.5 218.733C84.5 218.823 84.5 218.912 84.5 219.002C84.5 219.092 84.5 219.181 84.5 219.271C84.5 219.361 84.5 219.45 84.5 219.54C84.5 219.629 84.5 219.719 84.5 219.808C84.5 219.897 84.5 219.987 84.5 220.076C84.5 220.165 84.5 220.255 84.5 220.344C84.5 220.433 84.5 220.523 84.5 220.612C84.5 220.701 84.5 220.79 84.5 220.879C84.5 220.968 84.5 221.057 84.5 221.146C84.5 221.235 84.5 221.324 84.5 221.413C84.5 221.502 84.5 221.591 84.5 221.68C84.5 221.769 84.5 221.858 84.5 221.947C84.5 222.035 84.5 222.124 84.5 222.213C84.5 222.301 84.5 222.39 84.5 222.479C84.5 222.567 84.5 222.656 84.5 222.744C84.5 222.833 84.5 222.921 84.5 223.01C84.5 223.098 84.5 223.187 84.5 223.275C84.5 223.363 84.5 223.452 84.5 223.54C84.5 223.628 84.5 223.716 84.5 223.804C84.5 223.893 84.5 223.981 84.5 224.069C84.5 224.157 84.5 224.245 84.5 224.333C84.5 224.421 84.5 224.509 84.5 224.596C84.5 224.684 84.5 224.772 84.5 224.86C84.5 224.948 84.5 225.035 84.5 225.123C84.5 225.211 84.5 225.298 84.5 225.386C84.5 225.473 84.5 225.561 84.5 225.648C84.5 225.736 84.5 225.823 84.5 225.91C84.5 225.998 84.5 226.085 84.5 226.172C84.5 226.26 84.5 226.347 84.5 226.434C84.5 226.521 84.5 226.608 84.5 226.695C84.5 226.782 84.5 226.869 84.5 226.956C84.5 227.043 84.5 227.13 84.5 227.217C84.5 227.304 84.5 227.39 84.5 227.477C84.5 227.564 84.5 227.65 84.5 227.737C84.5 227.823 84.5 227.91 84.5 227.996C84.5 228.083 84.5 228.169 84.5 228.256C84.5 228.342 84.5 228.428 84.5 228.515C84.5 228.601 84.5 228.687 84.5 228.773C84.5 228.859 84.5 228.945 84.5 229.031C84.5 229.117 84.5 229.203 84.5 229.289C84.5 229.375 84.5 229.461 84.5 229.547C84.5 229.632 84.5 229.718 84.5 229.804C84.5 229.889 84.5 229.975 84.5 230.06C84.5 230.146 84.5 230.231 84.5 230.317C84.5 230.402 84.5 230.487 84.5 230.573C84.5 230.658 84.5 230.743 84.5 230.828C84.5 230.913 84.5 230.998 84.5 231.083C84.5 231.168 84.5 231.253 84.5 231.338C84.5 231.423 84.5 231.508 84.5 231.592C84.5 231.677 84.5 231.762 84.5 231.846C84.5 231.931 84.5 232.016 84.5 232.1C84.5 232.184 84.5 232.269 84.5 232.353C84.5 232.437 84.5 232.522 84.5 232.606C84.5 232.69 84.5 232.774 84.5 232.858C84.5 232.942 84.5 233.026 84.5 233.11C84.5 233.194 84.5 233.278 84.5 233.362C84.5 233.445 84.5 233.529 84.5 233.613C84.5 233.696 84.5 233.78 84.5 233.863C84.5 233.947 84.5 234.03 84.5 234.114C84.5 234.197 84.5 234.28 84.5 234.363C84.5 234.446 84.5 234.53 84.5 234.613C84.5 234.696 84.5 234.779 84.5 234.861C84.5 234.944 84.5 235.027 84.5 235.11C84.5 235.193 84.5 235.275 84.5 235.358C84.5 235.44 84.5 235.523 84.5 235.605C84.5 235.688 84.5 235.77 84.5 235.852C84.5 235.935 84.5 236.017 84.5 236.099C84.5 236.181 84.5 236.263 84.5 236.345C84.5 236.427 84.5 236.509 84.5 236.591C84.5 236.673 84.5 236.754 84.5 236.836C84.5 236.918 84.5 236.999 84.5 237.081C84.5 237.162 84.5 237.243 84.5 237.325C84.5 237.406 84.5 237.487 84.5 237.568C84.5 237.65 84.5 237.731 84.5 237.812C84.5 237.893 84.5 237.974 84.5 238.054C84.5 238.135 84.5 238.216 84.5 238.297C84.5 238.377 84.5 238.458 84.5 238.538C84.5 238.619 84.5 238.699 84.5 238.78C84.5 238.86 84.5 238.94 84.5 239.02C84.5 239.1 84.5 239.18 84.5 239.26C84.5 239.34 84.5 239.42 84.5 239.5H88.5C88.5 239.42 88.5 239.34 88.5 239.26C88.5 239.18 88.5 239.1 88.5 239.02C88.5 238.94 88.5 238.86 88.5 238.78C88.5 238.699 88.5 238.619 88.5 238.538C88.5 238.458 88.5 238.377 88.5 238.297C88.5 238.216 88.5 238.135 88.5 238.054C88.5 237.974 88.5 237.893 88.5 237.812C88.5 237.731 88.5 237.65 88.5 237.568C88.5 237.487 88.5 237.406 88.5 237.325C88.5 237.243 88.5 237.162 88.5 237.081C88.5 236.999 88.5 236.918 88.5 236.836C88.5 236.754 88.5 236.673 88.5 236.591C88.5 236.509 88.5 236.427 88.5 236.345C88.5 236.263 88.5 236.181 88.5 236.099C88.5 236.017 88.5 235.935 88.5 235.852C88.5 235.77 88.5 235.688 88.5 235.605C88.5 235.523 88.5 235.44 88.5 235.358C88.5 235.275 88.5 235.193 88.5 235.11C88.5 235.027 88.5 234.944 88.5 234.861C88.5 234.779 88.5 234.696 88.5 234.613C88.5 234.53 88.5 234.446 88.5 234.363C88.5 234.28 88.5 234.197 88.5 234.114C88.5 234.03 88.5 233.947 88.5 233.863C88.5 233.78 88.5 233.696 88.5 233.613C88.5 233.529 88.5 233.445 88.5 233.362C88.5 233.278 88.5 233.194 88.5 233.11C88.5 233.026 88.5 232.942 88.5 232.858C88.5 232.774 88.5 232.69 88.5 232.606C88.5 232.522 88.5 232.437 88.5 232.353C88.5 232.269 88.5 232.184 88.5 232.1C88.5 232.016 88.5 231.931 88.5 231.846C88.5 231.762 88.5 231.677 88.5 231.592C88.5 231.508 88.5 231.423 88.5 231.338C88.5 231.253 88.5 231.168 88.5 231.083C88.5 230.998 88.5 230.913 88.5 230.828C88.5 230.743 88.5 230.658 88.5 230.573C88.5 230.487 88.5 230.402 88.5 230.317C88.5 230.231 88.5 230.146 88.5 230.06C88.5 229.975 88.5 229.889 88.5 229.804C88.5 229.718 88.5 229.632 88.5 229.547C88.5 229.461 88.5 229.375 88.5 229.289C88.5 229.203 88.5 229.117 88.5 229.031C88.5 228.945 88.5 228.859 88.5 228.773C88.5 228.687 88.5 228.601 88.5 228.515C88.5 228.428 88.5 228.342 88.5 228.256C88.5 228.169 88.5 228.083 88.5 227.996C88.5 227.91 88.5 227.823 88.5 227.737C88.5 227.65 88.5 227.564 88.5 227.477C88.5 227.39 88.5 227.304 88.5 227.217C88.5 227.13 88.5 227.043 88.5 226.956C88.5 226.869 88.5 226.782 88.5 226.695C88.5 226.608 88.5 226.521 88.5 226.434C88.5 226.347 88.5 226.26 88.5 226.172C88.5 226.085 88.5 225.998 88.5 225.91C88.5 225.823 88.5 225.736 88.5 225.648C88.5 225.561 88.5 225.473 88.5 225.386C88.5 225.298 88.5 225.211 88.5 225.123C88.5 225.035 88.5 224.948 88.5 224.86C88.5 224.772 88.5 224.684 88.5 224.596C88.5 224.509 88.5 224.421 88.5 224.333C88.5 224.245 88.5 224.157 88.5 224.069C88.5 223.981 88.5 223.893 88.5 223.804C88.5 223.716 88.5 223.628 88.5 223.54C88.5 223.452 88.5 223.363 88.5 223.275C88.5 223.187 88.5 223.098 88.5 223.01C88.5 222.921 88.5 222.833 88.5 222.744C88.5 222.656 88.5 222.567 88.5 222.479C88.5 222.39 88.5 222.301 88.5 222.213C88.5 222.124 88.5 222.035 88.5 221.947C88.5 221.858 88.5 221.769 88.5 221.68C88.5 221.591 88.5 221.502 88.5 221.413C88.5 221.324 88.5 221.235 88.5 221.146C88.5 221.057 88.5 220.968 88.5 220.879C88.5 220.79 88.5 220.701 88.5 220.612C88.5 220.523 88.5 220.433 88.5 220.344C88.5 220.255 88.5 220.165 88.5 220.076C88.5 219.987 88.5 219.897 88.5 219.808C88.5 219.719 88.5 219.629 88.5 219.54C88.5 219.45 88.5 219.361 88.5 219.271C88.5 219.181 88.5 219.092 88.5 219.002C88.5 218.912 88.5 218.823 88.5 218.733C88.5 218.643 88.5 218.554 88.5 218.464C88.5 218.374 88.5 218.284 88.5 218.194C88.5 218.105 88.5 218.015 88.5 217.925C88.5 217.835 88.5 217.745 88.5 217.655C88.5 217.565 88.5 217.475 88.5 217.385C88.5 217.295 88.5 217.205 88.5 217.115C88.5 217.024 88.5 216.934 88.5 216.844C88.5 216.754 88.5 216.664 88.5 216.574C88.5 216.483 88.5 216.393 88.5 216.303C88.5 216.212 88.5 216.122 88.5 216.032C88.5 215.941 88.5 215.851 88.5 215.761C88.5 215.67 88.5 215.58 88.5 215.489C88.5 215.399 88.5 215.308 88.5 215.218C88.5 215.127 88.5 215.037 88.5 214.946C88.5 214.856 88.5 214.765 88.5 214.674C88.5 214.584 88.5 214.493 88.5 214.403C88.5 214.312 88.5 214.221 88.5 214.13C88.5 214.04 88.5 213.949 88.5 213.858C88.5 213.767 88.5 213.677 88.5 213.586C88.5 213.495 88.5 213.404 88.5 213.313C88.5 213.222 88.5 213.132 88.5 213.041C88.5 212.95 88.5 212.859 88.5 212.768C88.5 212.677 88.5 212.586 88.5 212.495C88.5 212.404 88.5 212.313 88.5 212.222C88.5 212.131 88.5 212.04 88.5 211.949C88.5 211.858 88.5 211.767 88.5 211.676C88.5 211.585 88.5 211.493 88.5 211.402C88.5 211.311 88.5 211.22 88.5 211.129C88.5 211.038 88.5 210.946 88.5 210.855C88.5 210.764 88.5 210.673 88.5 210.582C88.5 210.49 88.5 210.399 88.5 210.308C88.5 210.217 88.5 210.125 88.5 210.034C88.5 209.943 88.5 209.851 88.5 209.76C88.5 209.669 88.5 209.577 88.5 209.486C88.5 209.395 88.5 209.303 88.5 209.212C88.5 209.121 88.5 209.029 88.5 208.938C88.5 208.846 88.5 208.755 88.5 208.664C88.5 208.572 88.5 208.481 88.5 208.389C88.5 208.298 88.5 208.206 88.5 208.115C88.5 208.023 88.5 207.932 88.5 207.84C88.5 207.749 88.5 207.657 88.5 207.566C88.5 207.474 88.5 207.383 88.5 207.291C88.5 207.2 88.5 207.108 88.5 207.017C88.5 206.925 88.5 206.834 88.5 206.742C88.5 206.651 88.5 206.559 88.5 206.467C88.5 206.376 88.5 206.284 88.5 206.193C88.5 206.101 88.5 206.01 88.5 205.918C88.5 205.826 88.5 205.735 88.5 205.643C88.5 205.552 88.5 205.46 88.5 205.368C88.5 205.277 88.5 205.185 88.5 205.094C88.5 205.002 88.5 204.91 88.5 204.819C88.5 204.727 88.5 204.636 88.5 204.544C88.5 204.452 88.5 204.361 88.5 204.269C88.5 204.178 88.5 204.086 88.5 203.994C88.5 203.903 88.5 203.811 88.5 203.719C88.5 203.628 88.5 203.536 88.5 203.445C88.5 203.353 88.5 203.261 88.5 203.17C88.5 203.078 88.5 202.986 88.5 202.895C88.5 202.803 88.5 202.712 88.5 202.62C88.5 202.528 88.5 202.437 88.5 202.345C88.5 202.254 88.5 202.162 88.5 202.07C88.5 201.979 88.5 201.887 88.5 201.796C88.5 201.704 88.5 201.613 88.5 201.521C88.5 201.429 88.5 201.338 88.5 201.246C88.5 201.155 88.5 201.063 88.5 200.972C88.5 200.88 88.5 200.789 88.5 200.697C88.5 200.605 88.5 200.514 88.5 200.422C88.5 200.331 88.5 200.239 88.5 200.148C88.5 200.056 88.5 199.965 88.5 199.873C88.5 199.782 88.5 199.691 88.5 199.599C88.5 199.508 88.5 199.416 88.5 199.325C88.5 199.233 88.5 199.142 88.5 199.05C88.5 198.959 88.5 198.868 88.5 198.776C88.5 198.685 88.5 198.593 88.5 198.502C88.5 198.411 88.5 198.319 88.5 198.228C88.5 198.137 88.5 198.045 88.5 197.954C88.5 197.863 88.5 197.771 88.5 197.68C88.5 197.589 88.5 197.498 88.5 197.406C88.5 197.315 88.5 197.224 88.5 197.133C88.5 197.041 88.5 196.95 88.5 196.859C88.5 196.768 88.5 196.677 88.5 196.585C88.5 196.494 88.5 196.403 88.5 196.312C88.5 196.221 88.5 196.13 88.5 196.039C88.5 195.948 88.5 195.856 88.5 195.765C88.5 195.674 88.5 195.583 88.5 195.492C88.5 195.401 88.5 195.31 88.5 195.219C88.5 195.128 88.5 195.037 88.5 194.947C88.5 194.856 88.5 194.765 88.5 194.674C88.5 194.583 88.5 194.492 88.5 194.401C88.5 194.31 88.5 194.22 88.5 194.129C88.5 194.038 88.5 193.947 88.5 193.856C88.5 193.766 88.5 193.675 88.5 193.584C88.5 193.494 88.5 193.403 88.5 193.312C88.5 193.222 88.5 193.131 88.5 193.04C88.5 192.95 88.5 192.859 88.5 192.769C88.5 192.678 88.5 192.588 88.5 192.497C88.5 192.407 88.5 192.316 88.5 192.226C88.5 192.135 88.5 192.045 88.5 191.954C88.5 191.864 88.5 191.774 88.5 191.683C88.5 191.593 88.5 191.503 88.5 191.412C88.5 191.322 88.5 191.232 88.5 191.142C88.5 191.051 88.5 190.961 88.5 190.871C88.5 190.781 88.5 190.691 88.5 190.601C88.5 190.511 88.5 190.421 88.5 190.331C88.5 190.241 88.5 190.151 88.5 190.061C88.5 189.971 88.5 189.881 88.5 189.791C88.5 189.701 88.5 189.611 88.5 189.521C88.5 189.431 88.5 189.342 88.5 189.252C88.5 189.162 88.5 189.072 88.5 188.983C88.5 188.893 88.5 188.803 88.5 188.714C88.5 188.624 88.5 188.535 88.5 188.445C88.5 188.355 88.5 188.266 88.5 188.176C88.5 188.087 88.5 187.998 88.5 187.908C88.5 187.819 88.5 187.729 88.5 187.64C88.5 187.551 88.5 187.461 88.5 187.372C88.5 187.283 88.5 187.194 88.5 187.105C88.5 187.015 88.5 186.926 88.5 186.837C88.5 186.748 88.5 186.659 88.5 186.57C88.5 186.481 88.5 186.392 88.5 186.303C88.5 186.214 88.5 186.125 88.5 186.037C88.5 185.948 88.5 185.859 88.5 185.77C88.5 185.682 88.5 185.593 88.5 185.504C88.5 185.415 88.5 185.327 88.5 185.238C88.5 185.15 88.5 185.061 88.5 184.973C88.5 184.884 88.5 184.796 88.5 184.707C88.5 184.619 88.5 184.531 88.5 184.442C88.5 184.354 88.5 184.266 88.5 184.178C88.5 184.089 88.5 184.001 88.5 183.913C88.5 183.825 88.5 183.737 88.5 183.649C88.5 183.561 88.5 183.473 88.5 183.385C88.5 183.297 88.5 183.209 88.5 183.121C88.5 183.034 88.5 182.946 88.5 182.858C88.5 182.77 88.5 182.683 88.5 182.595C88.5 182.507 88.5 182.42 88.5 182.332C88.5 182.245 88.5 182.157 88.5 182.07C88.5 181.983 88.5 181.895 88.5 181.808C88.5 181.721 88.5 181.633 88.5 181.546C88.5 181.459 88.5 181.372 88.5 181.285C88.5 181.198 88.5 181.11 88.5 181.023C88.5 180.936 88.5 180.85 88.5 180.763C88.5 180.676 88.5 180.589 88.5 180.502C88.5 180.415 88.5 180.329 88.5 180.242C88.5 180.155 88.5 180.069 88.5 179.982C88.5 179.896 88.5 179.809 88.5 179.723C88.5 179.636 88.5 179.55 88.5 179.464C88.5 179.377 88.5 179.291 88.5 179.205C88.5 179.119 88.5 179.033 88.5 178.947C88.5 178.86 88.5 178.774 88.5 178.689C88.5 178.603 88.5 178.517 88.5 178.431C88.5 178.345 88.5 178.259 88.5 178.174C88.5 178.088 88.5 178.002 88.5 177.917C88.5 177.831 88.5 177.745 88.5 177.66C88.5 177.575 88.5 177.489 88.5 177.404C88.5 177.319 88.5 177.233 88.5 177.148C88.5 177.063 88.5 176.978 88.5 176.893C88.5 176.808 88.5 176.723 88.5 176.638C88.5 176.553 88.5 176.468 88.5 176.383C88.5 176.298 88.5 176.213 88.5 176.129C88.5 176.044 88.5 175.959 88.5 175.875C88.5 175.79 88.5 175.706 88.5 175.621C88.5 175.537 88.5 175.453 88.5 175.368C88.5 175.284 88.5 175.2 88.5 175.116C88.5 175.032 88.5 174.948 88.5 174.864C88.5 174.78 88.5 174.696 88.5 174.612C88.5 174.528 88.5 174.444 88.5 174.361C88.5 174.277 88.5 174.193 88.5 174.11C88.5 174.026 88.5 173.943 88.5 173.859C88.5 173.776 88.5 173.692 88.5 173.609C88.5 173.526 88.5 173.443 88.5 173.36C88.5 173.276 88.5 173.193 88.5 173.11C88.5 173.027 88.5 172.944 88.5 172.862C88.5 172.779 88.5 172.696 88.5 172.613C88.5 172.531 88.5 172.448 88.5 172.366C88.5 172.283 88.5 172.201 88.5 172.118C88.5 172.036 88.5 171.954 88.5 171.871C88.5 171.789 88.5 171.707 88.5 171.625C88.5 171.543 88.5 171.461 88.5 171.379C88.5 171.297 88.5 171.215 88.5 171.134C88.5 171.052 88.5 170.97 88.5 170.889C88.5 170.807 88.5 170.725 88.5 170.644C88.5 170.563 88.5 170.481 88.5 170.4C88.5 170.319 88.5 170.238 88.5 170.157C88.5 170.075 88.5 169.994 88.5 169.914C88.5 169.833 88.5 169.752 88.5 169.671C88.5 169.59 88.5 169.51 88.5 169.429C88.5 169.348 88.5 169.268 88.5 169.187C88.5 169.107 88.5 169.027 88.5 168.946C88.5 168.866 88.5 168.786 88.5 168.706C88.5 168.626 88.5 168.546 88.5 168.466C88.5 168.386 88.5 168.306 88.5 168.226C88.5 168.147 88.5 168.067 88.5 167.988C88.5 167.908 88.5 167.829 88.5 167.749C88.5 167.67 88.5 167.59 88.5 167.511C88.5 167.432 88.5 167.353 88.5 167.274C88.5 167.195 88.5 167.116 88.5 167.037C88.5 166.958 88.5 166.88 88.5 166.801C88.5 166.722 88.5 166.644 88.5 166.565C88.5 166.487 88.5 166.408 88.5 166.33C88.5 166.252 88.5 166.174 88.5 166.095C88.5 166.017 88.5 165.939 88.5 165.861C88.5 165.784 88.5 165.706 88.5 165.628C88.5 165.55 88.5 165.473 88.5 165.395C88.5 165.318 88.5 165.24 88.5 165.163C88.5 165.085 88.5 165.008 88.5 164.931C88.5 164.854 88.5 164.777 88.5 164.7C88.5 164.623 88.5 164.546 88.5 164.469C88.5 164.392 88.5 164.316 88.5 164.239C88.5 164.163 88.5 164.086 88.5 164.01C88.5 163.933 88.5 163.857 88.5 163.781C88.5 163.705 88.5 163.629 88.5 163.553C88.5 163.477 88.5 163.401 88.5 163.325C88.5 163.249 88.5 163.174 88.5 163.098C88.5 163.023 88.5 162.947 88.5 162.872C88.5 162.796 88.5 162.721 88.5 162.646C88.5 162.571 88.5 162.496 88.5 162.421C88.5 162.346 88.5 162.271 88.5 162.196C88.5 162.122 88.5 162.047 88.5 161.972C88.5 161.898 88.5 161.824 88.5 161.749C88.5 161.675 88.5 161.601 88.5 161.527C88.5 161.452 88.5 161.378 88.5 161.305C88.5 161.231 88.5 161.157 88.5 161.083C88.5 161.01 88.5 160.936 88.5 160.862C88.5 160.789 88.5 160.716 88.5 160.642C88.5 160.569 88.5 160.496 88.5 160.423C88.5 160.35 88.5 160.277 88.5 160.204C88.5 160.131 88.5 160.059 88.5 159.986C88.5 159.914 88.5 159.841 88.5 159.769C88.5 159.696 88.5 159.624 88.5 159.552C88.5 159.48 88.5 159.408 88.5 159.336C88.5 159.264 88.5 159.192 88.5 159.12C88.5 159.049 88.5 158.977 88.5 158.906C88.5 158.834 88.5 158.763 88.5 158.692C88.5 158.62 88.5 158.549 88.5 158.478C88.5 158.407 88.5 158.336 88.5 158.266C88.5 158.195 88.5 158.124 88.5 158.054C88.5 157.983 88.5 157.913 88.5 157.842C88.5 157.772 88.5 157.702 88.5 157.632C88.5 157.562 88.5 157.492 88.5 157.422C88.5 157.352 88.5 157.282 88.5 157.213C88.5 157.143 88.5 157.074 88.5 157.004C88.5 156.935 88.5 156.866 88.5 156.797C88.5 156.728 88.5 156.659 88.5 156.59C88.5 156.521 88.5 156.452 88.5 156.383C88.5 156.315 88.5 156.246 88.5 156.178C88.5 156.11 88.5 156.041 88.5 155.973C88.5 155.905 88.5 155.837 88.5 155.769C88.5 155.701 88.5 155.633 88.5 155.566C88.5 155.498 88.5 155.431 88.5 155.363C88.5 155.296 88.5 155.229 88.5 155.161C88.5 155.094 88.5 155.027 88.5 154.96C88.5 154.893 88.5 154.827 88.5 154.76C88.5 154.693 88.5 154.627 88.5 154.56C88.5 154.494 88.5 154.428 88.5 154.362C88.5 154.296 88.5 154.23 88.5 154.164C88.5 154.098 88.5 154.032 88.5 153.966C88.5 153.901 88.5 153.835 88.5 153.77C88.5 153.705 88.5 153.639 88.5 153.574C88.5 153.509 88.5 153.444 88.5 153.379C88.5 153.315 88.5 153.25 88.5 153.185C88.5 153.121 88.5 153.056 88.5 152.992C88.5 152.928 88.5 152.864 88.5 152.8C88.5 152.736 88.5 152.672 88.5 152.608C88.5 152.544 88.5 152.48 88.5 152.417C88.5 152.353 88.5 152.29 88.5 152.227C88.5 152.164 88.5 152.101 88.5 152.038C88.5 151.975 88.5 151.912 88.5 151.849C88.5 151.786 88.5 151.724 88.5 151.661C88.5 151.599 88.5 151.537 88.5 151.475C88.5 151.412 88.5 151.35 88.5 151.289C88.5 151.227 88.5 151.165 88.5 151.103C88.5 151.042 88.5 150.98 88.5 150.919C88.5 150.858 88.5 150.797 88.5 150.736C88.5 150.675 88.5 150.614 88.5 150.553C88.5 150.492 88.5 150.432 88.5 150.371C88.5 150.311 88.5 150.25 88.5 150.19C88.5 150.13 88.5 150.07 88.5 150.01C88.5 149.95 88.5 149.891 88.5 149.831C88.5 149.771 88.5 149.712 88.5 149.653C88.5 149.593 88.5 149.534 88.5 149.475C88.5 149.416 88.5 149.357 88.5 149.298C88.5 149.24 88.5 149.181 88.5 149.123C88.5 149.064 88.5 149.006 88.5 148.948C88.5 148.89 88.5 148.832 88.5 148.774C88.5 148.716 88.5 148.658 88.5 148.601C88.5 148.543 88.5 148.486 88.5 148.428C88.5 148.371 88.5 148.314 88.5 148.257C88.5 148.2 88.5 148.143 88.5 148.087C88.5 148.03 88.5 147.974 88.5 147.917C88.5 147.861 88.5 147.805 88.5 147.749C88.5 147.693 88.5 147.637 88.5 147.581C88.5 147.525 88.5 147.469 88.5 147.414C88.5 147.359 88.5 147.303 88.5 147.248C88.5 147.193 88.5 147.138 88.5 147.083C88.5 147.028 88.5 146.974 88.5 146.919C88.5 146.865 88.5 146.81 88.5 146.756C88.5 146.702 88.5 146.648 88.5 146.594C88.5 146.54 88.5 146.486 88.5 146.433C88.5 146.379 88.5 146.326 88.5 146.272C88.5 146.219 88.5 146.166 88.5 146.113C88.5 146.06 88.5 146.007 88.5 145.955C88.5 145.902 88.5 145.849 88.5 145.797C88.5 145.745 88.5 145.693 88.5 145.641C88.5 145.589 88.5 145.537 88.5 145.485C88.5 145.433 88.5 145.382 88.5 145.33C88.5 145.279 88.5 145.228 88.5 145.177C88.5 145.126 88.5 145.075 88.5 145.024C88.5 144.974 88.5 144.923 88.5 144.873C88.5 144.822 88.5 144.772 88.5 144.722C88.5 144.672 88.5 144.622 88.5 144.572C88.5 144.522 88.5 144.473 88.5 144.423C88.5 144.374 88.5 144.325 88.5 144.276C88.5 144.227 88.5 144.178 88.5 144.129C88.5 144.08 88.5 144.032 88.5 143.983C88.5 143.935 88.5 143.887 88.5 143.839C88.5 143.79 88.5 143.743 88.5 143.695C88.5 143.647 88.5 143.599 88.5 143.552C88.5 143.505 88.5 143.457 88.5 143.41C88.5 143.363 88.5 143.316 88.5 143.27C88.5 143.223 88.5 143.176 88.5 143.13C88.5 143.084 88.5 143.037 88.5 142.991C88.5 142.945 88.5 142.899 88.5 142.854C88.5 142.808 88.5 142.763 88.5 142.717C88.5 142.672 88.5 142.627 88.5 142.582C88.5 142.537 88.5 142.492 88.5 142.447C88.5 142.403 88.5 142.358 88.5 142.314C88.5 142.269 88.5 142.225 88.5 142.181C88.5 142.137 88.5 142.094 88.5 142.05C88.5 142.006 88.5 141.963 88.5 141.92C88.5 141.876 88.5 141.833 88.5 141.79C88.5 141.748 88.5 141.705 88.5 141.662C88.5 141.62 88.5 141.577 88.5 141.535C88.5 141.493 88.5 141.451 88.5 141.409C88.5 141.367 88.5 141.326 88.5 141.284C88.5 141.243 88.5 141.201 88.5 141.16C88.5 141.119 88.5 141.078 88.5 141.038C88.5 140.997 88.5 140.956 88.5 140.916C88.5 140.875 88.5 140.835 88.5 140.795C88.5 140.755 88.5 140.715 88.5 140.676C88.5 140.636 88.5 140.597 88.5 140.557C88.5 140.518 88.5 140.479 88.5 140.44C88.5 140.401 88.5 140.362 88.5 140.324C88.5 140.285 88.5 140.247 88.5 140.209C88.5 140.171 88.5 140.133 88.5 140.095C88.5 140.057 88.5 140.019 88.5 139.982C88.5 139.944 88.5 139.907 88.5 139.87C88.5 139.833 88.5 139.796 88.5 139.759C88.5 139.723 88.5 139.686 88.5 139.65C88.5 139.614 88.5 139.578 88.5 139.542C88.5 139.506 88.5 139.47 88.5 139.434C88.5 139.399 88.5 139.364 88.5 139.328C88.5 139.293 88.5 139.258 88.5 139.223C88.5 139.189 88.5 139.154 88.5 139.12C88.5 139.085 88.5 139.051 88.5 139.017C88.5 138.983 88.5 138.949 88.5 138.916C88.5 138.882 88.5 138.849 88.5 138.815C88.5 138.782 88.5 138.749 88.5 138.716C88.5 138.683 88.5 138.651 88.5 138.618C88.5 138.586 88.5 138.553 88.5 138.521C88.5 138.489 88.5 138.457 88.5 138.426C88.5 138.394 88.5 138.363 88.5 138.331C88.5 138.3 88.5 138.269 88.5 138.238C88.5 138.207 88.5 138.176 88.5 138.146C88.5 138.115 88.5 138.085 88.5 138.055C88.5 138.025 88.5 137.995 88.5 137.965C88.5 137.936 88.5 137.906 88.5 137.877C88.5 137.848 88.5 137.819 88.5 137.79C88.5 137.761 88.5 137.732 88.5 137.704C88.5 137.675 88.5 137.647 88.5 137.619C88.5 137.591 88.5 137.563 88.5 137.535C88.5 137.507 88.5 137.48 88.5 137.453C88.5 137.425 88.5 137.398 88.5 137.371C88.5 137.345 88.5 137.318 88.5 137.291C88.5 137.265 88.5 137.239 88.5 137.213C88.5 137.187 88.5 137.161 88.5 137.135C88.5 137.11 88.5 137.084 88.5 137.059C88.5 137.034 88.5 137.009 88.5 136.984C88.5 136.959 88.5 136.935 88.5 136.91C88.5 136.886 88.5 136.862 88.5 136.838C88.5 136.814 88.5 136.79 88.5 136.766C88.5 136.743 88.5 136.719 88.5 136.696C88.5 136.673 88.5 136.65 88.5 136.628C88.5 136.605 88.5 136.582 88.5 136.56C88.5 136.538 88.5 136.516 88.5 136.494C88.5 136.472 88.5 136.45 88.5 136.429C88.5 136.407 88.5 136.386 88.5 136.365C88.5 136.344 88.5 136.323 88.5 136.303C88.5 136.282 88.5 136.262 88.5 136.242C88.5 136.222 88.5 136.202 88.5 136.182C88.5 136.162 88.5 136.143 88.5 136.123C88.5 136.104 88.5 136.085 88.5 136.066C88.5 136.047 88.5 136.029 88.5 136.01C88.5 135.992 88.5 135.974 88.5 135.956C88.5 135.938 88.5 135.92 88.5 135.902C88.5 135.885 88.5 135.867 88.5 135.85C88.5 135.833 88.5 135.816 88.5 135.8C88.5 135.783 88.5 135.766 88.5 135.75C88.5 135.734 88.5 135.718 88.5 135.702C88.5 135.686 88.5 135.671 88.5 135.655C88.5 135.64 88.5 135.625 88.5 135.61C88.5 135.595 88.5 135.581 88.5 135.566C88.5 135.552 88.5 135.537 88.5 135.523C88.5 135.509 88.5 135.496 88.5 135.482C88.5 135.468 88.5 135.455 88.5 135.442C88.5 135.429 88.5 135.416 88.5 135.403C88.5 135.391 88.5 135.378 88.5 135.366C88.5 135.354 88.5 135.342 88.5 135.33C88.5 135.318 88.5 135.307 88.5 135.295C88.5 135.284 88.5 135.273 88.5 135.262C88.5 135.251 88.5 135.241 88.5 135.23C88.5 135.22 88.5 135.21 88.5 135.2C88.5 135.19 88.5 135.18 88.5 135.171C88.5 135.161 88.5 135.152 88.5 135.143C88.5 135.134 88.5 135.125 88.5 135.117C88.5 135.108 88.5 135.1 88.5 135.092C88.5 135.084 88.5 135.076 88.5 135.068C88.5 135.061 88.5 135.053 88.5 135.046C88.5 135.039 88.5 135.032 88.5 135.025C88.5 135.019 88.5 135.012 88.5 135.006C88.5 135 88.5 134.994 88.5 134.988C88.5 134.982 88.5 134.977 88.5 134.971C88.5 134.966 88.5 134.961 88.5 134.956C88.5 134.952 88.5 134.947 88.5 134.943C88.5 134.938 88.5 134.934 88.5 134.93C88.5 134.927 88.5 134.923 88.5 134.92C88.5 134.916 88.5 134.913 88.5 134.91C88.5 134.907 88.5 134.905 88.5 134.902C88.5 134.9 88.5 134.898 88.5 134.896C88.5 134.894 88.5 134.892 88.5 134.891C88.5 134.889 88.5 134.888 88.5 134.887C88.5 134.886 88.5 134.885 88.5 134.885C88.5 134.884 88.5 134.884 86.5 134.884ZM149.53 97.6566L85.5303 133.135L87.4697 136.633L151.47 101.155L149.53 97.6566Z" fill="white"/>
<path d="M76 59L74.7404 57.4465C75.3394 56.9608 76.1643 56.8628 76.8605 57.1946C77.5566 57.5263 78 58.2288 78 59H76ZM3.2596 120.554C2.40162 121.249 1.14215 121.118 0.446489 120.26C-0.249172 119.402 -0.117585 118.142 0.740396 117.446L3.2596 120.554ZM77.2596 60.5535L3.2596 120.554L0.740396 117.446L74.7404 57.4465L77.2596 60.5535ZM78 59V135.094H74V59H78ZM76 135.094C78 135.094 78 135.095 78 135.095C78 135.095 78 135.096 78 135.097C78 135.098 78 135.099 78 135.101C78 135.102 78 135.104 78 135.106C78 135.108 78 135.11 78 135.112C78 135.115 78 135.118 78 135.12C78 135.123 78 135.127 78 135.13C78 135.133 78 135.137 78 135.141C78 135.145 78 135.149 78 135.153C78 135.157 78 135.162 78 135.167C78 135.172 78 135.177 78 135.182C78 135.187 78 135.193 78 135.199C78 135.204 78 135.21 78 135.216C78 135.223 78 135.229 78 135.236C78 135.243 78 135.25 78 135.257C78 135.264 78 135.271 78 135.279C78 135.287 78 135.294 78 135.303C78 135.311 78 135.319 78 135.328C78 135.336 78 135.345 78 135.354C78 135.363 78 135.372 78 135.382C78 135.391 78 135.401 78 135.411C78 135.421 78 135.431 78 135.442C78 135.452 78 135.463 78 135.473C78 135.484 78 135.495 78 135.507C78 135.518 78 135.53 78 135.541C78 135.553 78 135.565 78 135.578C78 135.59 78 135.602 78 135.615C78 135.628 78 135.641 78 135.654C78 135.667 78 135.68 78 135.694C78 135.707 78 135.721 78 135.735C78 135.749 78 135.764 78 135.778C78 135.793 78 135.807 78 135.822C78 135.837 78 135.852 78 135.868C78 135.883 78 135.899 78 135.915C78 135.931 78 135.947 78 135.963C78 135.979 78 135.996 78 136.012C78 136.029 78 136.046 78 136.063C78 136.08 78 136.098 78 136.115C78 136.133 78 136.151 78 136.169C78 136.187 78 136.205 78 136.224C78 136.242 78 136.261 78 136.28C78 136.299 78 136.318 78 136.337C78 136.356 78 136.376 78 136.396C78 136.415 78 136.435 78 136.456C78 136.476 78 136.496 78 136.517C78 136.538 78 136.558 78 136.58C78 136.601 78 136.622 78 136.643C78 136.665 78 136.687 78 136.709C78 136.73 78 136.753 78 136.775C78 136.797 78 136.82 78 136.843C78 136.865 78 136.888 78 136.912C78 136.935 78 136.958 78 136.982C78 137.005 78 137.029 78 137.053C78 137.077 78 137.102 78 137.126C78 137.15 78 137.175 78 137.2C78 137.225 78 137.25 78 137.275C78 137.3 78 137.326 78 137.352C78 137.377 78 137.403 78 137.429C78 137.456 78 137.482 78 137.508C78 137.535 78 137.562 78 137.589C78 137.615 78 137.643 78 137.67C78 137.697 78 137.725 78 137.753C78 137.78 78 137.808 78 137.836C78 137.865 78 137.893 78 137.922C78 137.95 78 137.979 78 138.008C78 138.037 78 138.066 78 138.095C78 138.125 78 138.154 78 138.184C78 138.214 78 138.244 78 138.274C78 138.304 78 138.335 78 138.365C78 138.396 78 138.427 78 138.458C78 138.489 78 138.52 78 138.551C78 138.582 78 138.614 78 138.646C78 138.678 78 138.709 78 138.742C78 138.774 78 138.806 78 138.839C78 138.871 78 138.904 78 138.937C78 138.97 78 139.003 78 139.036C78 139.07 78 139.103 78 139.137C78 139.171 78 139.205 78 139.239C78 139.273 78 139.307 78 139.342C78 139.376 78 139.411 78 139.446C78 139.481 78 139.516 78 139.551C78 139.586 78 139.622 78 139.657C78 139.693 78 139.729 78 139.765C78 139.801 78 139.837 78 139.873C78 139.91 78 139.946 78 139.983C78 140.02 78 140.057 78 140.094C78 140.131 78 140.169 78 140.206C78 140.244 78 140.281 78 140.319C78 140.357 78 140.395 78 140.434C78 140.472 78 140.51 78 140.549C78 140.588 78 140.627 78 140.666C78 140.705 78 140.744 78 140.783C78 140.823 78 140.862 78 140.902C78 140.942 78 140.982 78 141.022C78 141.062 78 141.102 78 141.143C78 141.183 78 141.224 78 141.265C78 141.306 78 141.347 78 141.388C78 141.429 78 141.471 78 141.512C78 141.554 78 141.595 78 141.637C78 141.679 78 141.722 78 141.764C78 141.806 78 141.849 78 141.891C78 141.934 78 141.977 78 142.02C78 142.063 78 142.106 78 142.149C78 142.193 78 142.236 78 142.28C78 142.324 78 142.368 78 142.412C78 142.456 78 142.5 78 142.545C78 142.589 78 142.634 78 142.678C78 142.723 78 142.768 78 142.813C78 142.858 78 142.904 78 142.949C78 142.995 78 143.04 78 143.086C78 143.132 78 143.178 78 143.224C78 143.27 78 143.317 78 143.363C78 143.41 78 143.456 78 143.503C78 143.55 78 143.597 78 143.644C78 143.691 78 143.739 78 143.786C78 143.834 78 143.882 78 143.929C78 143.977 78 144.025 78 144.074C78 144.122 78 144.17 78 144.219C78 144.267 78 144.316 78 144.365C78 144.414 78 144.463 78 144.512C78 144.561 78 144.611 78 144.66C78 144.71 78 144.759 78 144.809C78 144.859 78 144.909 78 144.959C78 145.01 78 145.06 78 145.11C78 145.161 78 145.212 78 145.263C78 145.313 78 145.364 78 145.416C78 145.467 78 145.518 78 145.57C78 145.621 78 145.673 78 145.725C78 145.776 78 145.828 78 145.881C78 145.933 78 145.985 78 146.038C78 146.09 78 146.143 78 146.195C78 146.248 78 146.301 78 146.354C78 146.407 78 146.461 78 146.514C78 146.567 78 146.621 78 146.675C78 146.729 78 146.782 78 146.837C78 146.891 78 146.945 78 146.999C78 147.053 78 147.108 78 147.163C78 147.217 78 147.272 78 147.327C78 147.382 78 147.437 78 147.493C78 147.548 78 147.603 78 147.659C78 147.715 78 147.77 78 147.826C78 147.882 78 147.938 78 147.994C78 148.051 78 148.107 78 148.163C78 148.22 78 148.277 78 148.333C78 148.39 78 148.447 78 148.504C78 148.562 78 148.619 78 148.676C78 148.734 78 148.791 78 148.849C78 148.907 78 148.964 78 149.022C78 149.08 78 149.139 78 149.197C78 149.255 78 149.314 78 149.372C78 149.431 78 149.49 78 149.549C78 149.607 78 149.667 78 149.726C78 149.785 78 149.844 78 149.904C78 149.963 78 150.023 78 150.083C78 150.142 78 150.202 78 150.262C78 150.322 78 150.383 78 150.443C78 150.503 78 150.564 78 150.624C78 150.685 78 150.746 78 150.807C78 150.868 78 150.929 78 150.99C78 151.051 78 151.112 78 151.174C78 151.235 78 151.297 78 151.359C78 151.42 78 151.482 78 151.544C78 151.606 78 151.668 78 151.731C78 151.793 78 151.856 78 151.918C78 151.981 78 152.043 78 152.106C78 152.169 78 152.232 78 152.295C78 152.358 78 152.422 78 152.485C78 152.548 78 152.612 78 152.676C78 152.739 78 152.803 78 152.867C78 152.931 78 152.995 78 153.059C78 153.124 78 153.188 78 153.252C78 153.317 78 153.382 78 153.446C78 153.511 78 153.576 78 153.641C78 153.706 78 153.771 78 153.836C78 153.902 78 153.967 78 154.033C78 154.098 78 154.164 78 154.23C78 154.295 78 154.361 78 154.427C78 154.493 78 154.56 78 154.626C78 154.692 78 154.759 78 154.825C78 154.892 78 154.958 78 155.025C78 155.092 78 155.159 78 155.226C78 155.293 78 155.36 78 155.428C78 155.495 78 155.563 78 155.63C78 155.698 78 155.765 78 155.833C78 155.901 78 155.969 78 156.037C78 156.105 78 156.173 78 156.242C78 156.31 78 156.379 78 156.447C78 156.516 78 156.584 78 156.653C78 156.722 78 156.791 78 156.86C78 156.929 78 156.998 78 157.068C78 157.137 78 157.206 78 157.276C78 157.345 78 157.415 78 157.485C78 157.555 78 157.625 78 157.695C78 157.765 78 157.835 78 157.905C78 157.975 78 158.046 78 158.116C78 158.187 78 158.257 78 158.328C78 158.399 78 158.47 78 158.541C78 158.612 78 158.683 78 158.754C78 158.825 78 158.896 78 158.968C78 159.039 78 159.111 78 159.182C78 159.254 78 159.326 78 159.398C78 159.47 78 159.542 78 159.614C78 159.686 78 159.758 78 159.83C78 159.903 78 159.975 78 160.048C78 160.12 78 160.193 78 160.266C78 160.339 78 160.412 78 160.485C78 160.558 78 160.631 78 160.704C78 160.777 78 160.851 78 160.924C78 160.997 78 161.071 78 161.145C78 161.218 78 161.292 78 161.366C78 161.44 78 161.514 78 161.588C78 161.662 78 161.736 78 161.811C78 161.885 78 161.959 78 162.034C78 162.108 78 162.183 78 162.258C78 162.332 78 162.407 78 162.482C78 162.557 78 162.632 78 162.707C78 162.783 78 162.858 78 162.933C78 163.009 78 163.084 78 163.16C78 163.235 78 163.311 78 163.387C78 163.462 78 163.538 78 163.614C78 163.69 78 163.766 78 163.842C78 163.919 78 163.995 78 164.071C78 164.148 78 164.224 78 164.301C78 164.377 78 164.454 78 164.531C78 164.608 78 164.684 78 164.761C78 164.838 78 164.915 78 164.993C78 165.07 78 165.147 78 165.224C78 165.302 78 165.379 78 165.457C78 165.534 78 165.612 78 165.69C78 165.768 78 165.845 78 165.923C78 166.001 78 166.079 78 166.157C78 166.236 78 166.314 78 166.392C78 166.47 78 166.549 78 166.627C78 166.706 78 166.784 78 166.863C78 166.942 78 167.021 78 167.1C78 167.178 78 167.257 78 167.336C78 167.415 78 167.495 78 167.574C78 167.653 78 167.732 78 167.812C78 167.891 78 167.971 78 168.05C78 168.13 78 168.21 78 168.289C78 168.369 78 168.449 78 168.529C78 168.609 78 168.689 78 168.769C78 168.849 78 168.93 78 169.01C78 169.09 78 169.17 78 169.251C78 169.331 78 169.412 78 169.493C78 169.573 78 169.654 78 169.735C78 169.816 78 169.897 78 169.978C78 170.059 78 170.14 78 170.221C78 170.302 78 170.383 78 170.464C78 170.546 78 170.627 78 170.709C78 170.79 78 170.872 78 170.953C78 171.035 78 171.117 78 171.199C78 171.28 78 171.362 78 171.444C78 171.526 78 171.608 78 171.69C78 171.772 78 171.855 78 171.937C78 172.019 78 172.102 78 172.184C78 172.266 78 172.349 78 172.432C78 172.514 78 172.597 78 172.68C78 172.762 78 172.845 78 172.928C78 173.011 78 173.094 78 173.177C78 173.26 78 173.343 78 173.426C78 173.51 78 173.593 78 173.676C78 173.76 78 173.843 78 173.927C78 174.01 78 174.094 78 174.177C78 174.261 78 174.345 78 174.429C78 174.512 78 174.596 78 174.68C78 174.764 78 174.848 78 174.932C78 175.016 78 175.1 78 175.185C78 175.269 78 175.353 78 175.438C78 175.522 78 175.606 78 175.691C78 175.775 78 175.86 78 175.945C78 176.029 78 176.114 78 176.199C78 176.283 78 176.368 78 176.453C78 176.538 78 176.623 78 176.708C78 176.793 78 176.878 78 176.963C78 177.049 78 177.134 78 177.219C78 177.305 78 177.39 78 177.475C78 177.561 78 177.646 78 177.732C78 177.817 78 177.903 78 177.989C78 178.074 78 178.16 78 178.246C78 178.332 78 178.418 78 178.504C78 178.59 78 178.676 78 178.762C78 178.848 78 178.934 78 179.02C78 179.106 78 179.193 78 179.279C78 179.365 78 179.452 78 179.538C78 179.624 78 179.711 78 179.797C78 179.884 78 179.971 78 180.057C78 180.144 78 180.231 78 180.317C78 180.404 78 180.491 78 180.578C78 180.665 78 180.752 78 180.839C78 180.926 78 181.013 78 181.1C78 181.187 78 181.274 78 181.361C78 181.449 78 181.536 78 181.623C78 181.711 78 181.798 78 181.886C78 181.973 78 182.06 78 182.148C78 182.236 78 182.323 78 182.411C78 182.498 78 182.586 78 182.674C78 182.762 78 182.85 78 182.937C78 183.025 78 183.113 78 183.201C78 183.289 78 183.377 78 183.465C78 183.553 78 183.641 78 183.73C78 183.818 78 183.906 78 183.994C78 184.082 78 184.171 78 184.259C78 184.347 78 184.436 78 184.524C78 184.613 78 184.701 78 184.79C78 184.878 78 184.967 78 185.056C78 185.144 78 185.233 78 185.322C78 185.41 78 185.499 78 185.588C78 185.677 78 185.766 78 185.855C78 185.943 78 186.032 78 186.121C78 186.21 78 186.299 78 186.389C78 186.478 78 186.567 78 186.656C78 186.745 78 186.834 78 186.924C78 187.013 78 187.102 78 187.191C78 187.281 78 187.37 78 187.459C78 187.549 78 187.638 78 187.728C78 187.817 78 187.907 78 187.996C78 188.086 78 188.176 78 188.265C78 188.355 78 188.445 78 188.534C78 188.624 78 188.714 78 188.804C78 188.893 78 188.983 78 189.073C78 189.163 78 189.253 78 189.343C78 189.433 78 189.523 78 189.613C78 189.703 78 189.793 78 189.883C78 189.973 78 190.063 78 190.153C78 190.243 78 190.333 78 190.424C78 190.514 78 190.604 78 190.694C78 190.785 78 190.875 78 190.965C78 191.056 78 191.146 78 191.236C78 191.327 78 191.417 78 191.508C78 191.598 78 191.689 78 191.779C78 191.87 78 191.96 78 192.051C78 192.141 78 192.232 78 192.323C78 192.413 78 192.504 78 192.595C78 192.685 78 192.776 78 192.867C78 192.958 78 193.048 78 193.139C78 193.23 78 193.321 78 193.412C78 193.502 78 193.593 78 193.684C78 193.775 78 193.866 78 193.957C78 194.048 78 194.139 78 194.23C78 194.321 78 194.412 78 194.503C78 194.594 78 194.685 78 194.776C78 194.867 78 194.958 78 195.05C78 195.141 78 195.232 78 195.323C78 195.414 78 195.505 78 195.597C78 195.688 78 195.779 78 195.87C78 195.962 78 196.053 78 196.144C78 196.236 78 196.327 78 196.418C78 196.51 78 196.601 78 196.692C78 196.784 78 196.875 78 196.967C78 197.058 78 197.149 78 197.241C78 197.332 78 197.424 78 197.515C78 197.607 78 197.698 78 197.79C78 197.881 78 197.973 78 198.064C78 198.156 78 198.247 78 198.339C78 198.43 78 198.522 78 198.614C78 198.705 78 198.797 78 198.888C78 198.98 78 199.072 78 199.163C78 199.255 78 199.347 78 199.438C78 199.53 78 199.622 78 199.713C78 199.805 78 199.897 78 199.989C78 200.08 78 200.172 78 200.264C78 200.355 78 200.447 78 200.539C78 200.631 78 200.722 78 200.814C78 200.906 78 200.998 78 201.09C78 201.181 78 201.273 78 201.365C78 201.457 78 201.549 78 201.64C78 201.732 78 201.824 78 201.916C78 202.008 78 202.099 78 202.191C78 202.283 78 202.375 78 202.467C78 202.559 78 202.65 78 202.742C78 202.834 78 202.926 78 203.018C78 203.11 78 203.202 78 203.293C78 203.385 78 203.477 78 203.569C78 203.661 78 203.753 78 203.845C78 203.937 78 204.028 78 204.12C78 204.212 78 204.304 78 204.396C78 204.488 78 204.58 78 204.672C78 204.763 78 204.855 78 204.947C78 205.039 78 205.131 78 205.223C78 205.315 78 205.406 78 205.498C78 205.59 78 205.682 78 205.774C78 205.866 78 205.958 78 206.049C78 206.141 78 206.233 78 206.325C78 206.417 78 206.509 78 206.601C78 206.692 78 206.784 78 206.876C78 206.968 78 207.06 78 207.151C78 207.243 78 207.335 78 207.427C78 207.519 78 207.61 78 207.702C78 207.794 78 207.886 78 207.977C78 208.069 78 208.161 78 208.253C78 208.344 78 208.436 78 208.528C78 208.62 78 208.711 78 208.803C78 208.895 78 208.986 78 209.078C78 209.17 78 209.261 78 209.353C78 209.445 78 209.536 78 209.628C78 209.72 78 209.811 78 209.903C78 209.994 78 210.086 78 210.178C78 210.269 78 210.361 78 210.452C78 210.544 78 210.635 78 210.727C78 210.818 78 210.91 78 211.001C78 211.093 78 211.184 78 211.276C78 211.367 78 211.459 78 211.55C78 211.642 78 211.733 78 211.824C78 211.916 78 212.007 78 212.099C78 212.19 78 212.281 78 212.373C78 212.464 78 212.555 78 212.646C78 212.738 78 212.829 78 212.92C78 213.011 78 213.103 78 213.194C78 213.285 78 213.376 78 213.467C78 213.559 78 213.65 78 213.741C78 213.832 78 213.923 78 214.014C78 214.105 78 214.196 78 214.287C78 214.378 78 214.469 78 214.56C78 214.651 78 214.742 78 214.833C78 214.924 78 215.015 78 215.106C78 215.197 78 215.287 78 215.378C78 215.469 78 215.56 78 215.651C78 215.741 78 215.832 78 215.923C78 216.014 78 216.104 78 216.195C78 216.286 78 216.376 78 216.467C78 216.557 78 216.648 78 216.739C78 216.829 78 216.92 78 217.01C78 217.101 78 217.191 78 217.281C78 217.372 78 217.462 78 217.553C78 217.643 78 217.733 78 217.824C78 217.914 78 218.004 78 218.094C78 218.185 78 218.275 78 218.365C78 218.455 78 218.545 78 218.635C78 218.725 78 218.816 78 218.906C78 218.996 78 219.086 78 219.176C78 219.266 78 219.355 78 219.445C78 219.535 78 219.625 78 219.715C78 219.805 78 219.895 78 219.984C78 220.074 78 220.164 78 220.253C78 220.343 78 220.433 78 220.522C78 220.612 78 220.701 78 220.791C78 220.88 78 220.97 78 221.059C78 221.149 78 221.238 78 221.328C78 221.417 78 221.506 78 221.596C78 221.685 78 221.774 78 221.863C78 221.952 78 222.042 78 222.131C78 222.22 78 222.309 78 222.398C78 222.487 78 222.576 78 222.665C78 222.754 78 222.843 78 222.932C78 223.02 78 223.109 78 223.198C78 223.287 78 223.375 78 223.464C78 223.553 78 223.641 78 223.73C78 223.819 78 223.907 78 223.996C78 224.084 78 224.172 78 224.261C78 224.349 78 224.438 78 224.526C78 224.614 78 224.702 78 224.791C78 224.879 78 224.967 78 225.055C78 225.143 78 225.231 78 225.319C78 225.407 78 225.495 78 225.583C78 225.671 78 225.759 78 225.847C78 225.934 78 226.022 78 226.11C78 226.198 78 226.285 78 226.373C78 226.46 78 226.548 78 226.635C78 226.723 78 226.81 78 226.898C78 226.985 78 227.072 78 227.16C78 227.247 78 227.334 78 227.421C78 227.509 78 227.596 78 227.683C78 227.77 78 227.857 78 227.944C78 228.031 78 228.117 78 228.204C78 228.291 78 228.378 78 228.465C78 228.551 78 228.638 78 228.725C78 228.811 78 228.898 78 228.984C78 229.071 78 229.157 78 229.243C78 229.33 78 229.416 78 229.502C78 229.588 78 229.675 78 229.761C78 229.847 78 229.933 78 230.019C78 230.105 78 230.191 78 230.277C78 230.363 78 230.448 78 230.534C78 230.62 78 230.706 78 230.791C78 230.877 78 230.962 78 231.048C78 231.133 78 231.219 78 231.304C78 231.389 78 231.475 78 231.56C78 231.645 78 231.73 78 231.815C78 231.901 78 231.986 78 232.071C78 232.155 78 232.24 78 232.325C78 232.41 78 232.495 78 232.579C78 232.664 78 232.749 78 232.833C78 232.918 78 233.002 78 233.087C78 233.171 78 233.256 78 233.34C78 233.424 78 233.508 78 233.592C78 233.677 78 233.761 78 233.845C78 233.929 78 234.013 78 234.096C78 234.18 78 234.264 78 234.348C78 234.431 78 234.515 78 234.599C78 234.682 78 234.766 78 234.849C78 234.932 78 235.016 78 235.099C78 235.182 78 235.266 78 235.349C78 235.432 78 235.515 78 235.598C78 235.681 78 235.764 78 235.846C78 235.929 78 236.012 78 236.095C78 236.177 78 236.26 78 236.342C78 236.425 78 236.507 78 236.59C78 236.672 78 236.754 78 236.836C78 236.919 78 237.001 78 237.083C78 237.165 78 237.247 78 237.329C78 237.41 78 237.492 78 237.574C78 237.656 78 237.737 78 237.819C78 237.9 78 237.982 78 238.063C78 238.144 78 238.226 78 238.307C78 238.388 78 238.469 78 238.55C78 238.631 78 238.712 78 238.793C78 238.874 78 238.955 78 239.036C78 239.116 78 239.197 78 239.278C78 239.358 78 239.438 78 239.519C78 239.599 78 239.679 78 239.76C78 239.84 78 239.92 78 240H74C74 239.92 74 239.84 74 239.76C74 239.679 74 239.599 74 239.519C74 239.438 74 239.358 74 239.278C74 239.197 74 239.116 74 239.036C74 238.955 74 238.874 74 238.793C74 238.712 74 238.631 74 238.55C74 238.469 74 238.388 74 238.307C74 238.226 74 238.144 74 238.063C74 237.982 74 237.9 74 237.819C74 237.737 74 237.656 74 237.574C74 237.492 74 237.41 74 237.329C74 237.247 74 237.165 74 237.083C74 237.001 74 236.919 74 236.836C74 236.754 74 236.672 74 236.59C74 236.507 74 236.425 74 236.342C74 236.26 74 236.177 74 236.095C74 236.012 74 235.929 74 235.846C74 235.764 74 235.681 74 235.598C74 235.515 74 235.432 74 235.349C74 235.266 74 235.182 74 235.099C74 235.016 74 234.932 74 234.849C74 234.766 74 234.682 74 234.599C74 234.515 74 234.431 74 234.348C74 234.264 74 234.18 74 234.096C74 234.013 74 233.929 74 233.845C74 233.761 74 233.677 74 233.592C74 233.508 74 233.424 74 233.34C74 233.256 74 233.171 74 233.087C74 233.002 74 232.918 74 232.833C74 232.749 74 232.664 74 232.579C74 232.495 74 232.41 74 232.325C74 232.24 74 232.155 74 232.071C74 231.986 74 231.901 74 231.815C74 231.73 74 231.645 74 231.56C74 231.475 74 231.389 74 231.304C74 231.219 74 231.133 74 231.048C74 230.962 74 230.877 74 230.791C74 230.706 74 230.62 74 230.534C74 230.448 74 230.363 74 230.277C74 230.191 74 230.105 74 230.019C74 229.933 74 229.847 74 229.761C74 229.675 74 229.588 74 229.502C74 229.416 74 229.33 74 229.243C74 229.157 74 229.071 74 228.984C74 228.898 74 228.811 74 228.725C74 228.638 74 228.551 74 228.465C74 228.378 74 228.291 74 228.204C74 228.117 74 228.031 74 227.944C74 227.857 74 227.77 74 227.683C74 227.596 74 227.509 74 227.421C74 227.334 74 227.247 74 227.16C74 227.072 74 226.985 74 226.898C74 226.81 74 226.723 74 226.635C74 226.548 74 226.46 74 226.373C74 226.285 74 226.198 74 226.11C74 226.022 74 225.934 74 225.847C74 225.759 74 225.671 74 225.583C74 225.495 74 225.407 74 225.319C74 225.231 74 225.143 74 225.055C74 224.967 74 224.879 74 224.791C74 224.702 74 224.614 74 224.526C74 224.438 74 224.349 74 224.261C74 224.172 74 224.084 74 223.996C74 223.907 74 223.819 74 223.73C74 223.641 74 223.553 74 223.464C74 223.375 74 223.287 74 223.198C74 223.109 74 223.02 74 222.932C74 222.843 74 222.754 74 222.665C74 222.576 74 222.487 74 222.398C74 222.309 74 222.22 74 222.131C74 222.042 74 221.952 74 221.863C74 221.774 74 221.685 74 221.596C74 221.506 74 221.417 74 221.328C74 221.238 74 221.149 74 221.059C74 220.97 74 220.88 74 220.791C74 220.701 74 220.612 74 220.522C74 220.433 74 220.343 74 220.253C74 220.164 74 220.074 74 219.984C74 219.895 74 219.805 74 219.715C74 219.625 74 219.535 74 219.445C74 219.355 74 219.266 74 219.176C74 219.086 74 218.996 74 218.906C74 218.816 74 218.725 74 218.635C74 218.545 74 218.455 74 218.365C74 218.275 74 218.185 74 218.094C74 218.004 74 217.914 74 217.824C74 217.733 74 217.643 74 217.553C74 217.462 74 217.372 74 217.281C74 217.191 74 217.101 74 217.01C74 216.92 74 216.829 74 216.739C74 216.648 74 216.557 74 216.467C74 216.376 74 216.286 74 216.195C74 216.104 74 216.014 74 215.923C74 215.832 74 215.741 74 215.651C74 215.56 74 215.469 74 215.378C74 215.287 74 215.197 74 215.106C74 215.015 74 214.924 74 214.833C74 214.742 74 214.651 74 214.56C74 214.469 74 214.378 74 214.287C74 214.196 74 214.105 74 214.014C74 213.923 74 213.832 74 213.741C74 213.65 74 213.559 74 213.467C74 213.376 74 213.285 74 213.194C74 213.103 74 213.011 74 212.92C74 212.829 74 212.738 74 212.646C74 212.555 74 212.464 74 212.373C74 212.281 74 212.19 74 212.099C74 212.007 74 211.916 74 211.824C74 211.733 74 211.642 74 211.55C74 211.459 74 211.367 74 211.276C74 211.184 74 211.093 74 211.001C74 210.91 74 210.818 74 210.727C74 210.635 74 210.544 74 210.452C74 210.361 74 210.269 74 210.178C74 210.086 74 209.994 74 209.903C74 209.811 74 209.72 74 209.628C74 209.536 74 209.445 74 209.353C74 209.261 74 209.17 74 209.078C74 208.986 74 208.895 74 208.803C74 208.711 74 208.62 74 208.528C74 208.436 74 208.344 74 208.253C74 208.161 74 208.069 74 207.977C74 207.886 74 207.794 74 207.702C74 207.61 74 207.519 74 207.427C74 207.335 74 207.243 74 207.151C74 207.06 74 206.968 74 206.876C74 206.784 74 206.692 74 206.601C74 206.509 74 206.417 74 206.325C74 206.233 74 206.141 74 206.049C74 205.958 74 205.866 74 205.774C74 205.682 74 205.59 74 205.498C74 205.406 74 205.315 74 205.223C74 205.131 74 205.039 74 204.947C74 204.855 74 204.763 74 204.672C74 204.58 74 204.488 74 204.396C74 204.304 74 204.212 74 204.12C74 204.028 74 203.937 74 203.845C74 203.753 74 203.661 74 203.569C74 203.477 74 203.385 74 203.293C74 203.202 74 203.11 74 203.018C74 202.926 74 202.834 74 202.742C74 202.65 74 202.559 74 202.467C74 202.375 74 202.283 74 202.191C74 202.099 74 202.008 74 201.916C74 201.824 74 201.732 74 201.64C74 201.549 74 201.457 74 201.365C74 201.273 74 201.181 74 201.09C74 200.998 74 200.906 74 200.814C74 200.722 74 200.631 74 200.539C74 200.447 74 200.355 74 200.264C74 200.172 74 200.08 74 199.989C74 199.897 74 199.805 74 199.713C74 199.622 74 199.53 74 199.438C74 199.347 74 199.255 74 199.163C74 199.072 74 198.98 74 198.888C74 198.797 74 198.705 74 198.614C74 198.522 74 198.43 74 198.339C74 198.247 74 198.156 74 198.064C74 197.973 74 197.881 74 197.79C74 197.698 74 197.607 74 197.515C74 197.424 74 197.332 74 197.241C74 197.149 74 197.058 74 196.967C74 196.875 74 196.784 74 196.692C74 196.601 74 196.51 74 196.418C74 196.327 74 196.236 74 196.144C74 196.053 74 195.962 74 195.87C74 195.779 74 195.688 74 195.597C74 195.505 74 195.414 74 195.323C74 195.232 74 195.141 74 195.05C74 194.958 74 194.867 74 194.776C74 194.685 74 194.594 74 194.503C74 194.412 74 194.321 74 194.23C74 194.139 74 194.048 74 193.957C74 193.866 74 193.775 74 193.684C74 193.593 74 193.502 74 193.412C74 193.321 74 193.23 74 193.139C74 193.048 74 192.958 74 192.867C74 192.776 74 192.685 74 192.595C74 192.504 74 192.413 74 192.323C74 192.232 74 192.141 74 192.051C74 191.96 74 191.87 74 191.779C74 191.689 74 191.598 74 191.508C74 191.417 74 191.327 74 191.236C74 191.146 74 191.056 74 190.965C74 190.875 74 190.785 74 190.694C74 190.604 74 190.514 74 190.424C74 190.333 74 190.243 74 190.153C74 190.063 74 189.973 74 189.883C74 189.793 74 189.703 74 189.613C74 189.523 74 189.433 74 189.343C74 189.253 74 189.163 74 189.073C74 188.983 74 188.893 74 188.804C74 188.714 74 188.624 74 188.534C74 188.445 74 188.355 74 188.265C74 188.176 74 188.086 74 187.996C74 187.907 74 187.817 74 187.728C74 187.638 74 187.549 74 187.459C74 187.37 74 187.281 74 187.191C74 187.102 74 187.013 74 186.924C74 186.834 74 186.745 74 186.656C74 186.567 74 186.478 74 186.389C74 186.299 74 186.21 74 186.121C74 186.032 74 185.943 74 185.855C74 185.766 74 185.677 74 185.588C74 185.499 74 185.41 74 185.322C74 185.233 74 185.144 74 185.056C74 184.967 74 184.878 74 184.79C74 184.701 74 184.613 74 184.524C74 184.436 74 184.347 74 184.259C74 184.171 74 184.082 74 183.994C74 183.906 74 183.818 74 183.73C74 183.641 74 183.553 74 183.465C74 183.377 74 183.289 74 183.201C74 183.113 74 183.025 74 182.937C74 182.85 74 182.762 74 182.674C74 182.586 74 182.498 74 182.411C74 182.323 74 182.236 74 182.148C74 182.06 74 181.973 74 181.886C74 181.798 74 181.711 74 181.623C74 181.536 74 181.449 74 181.361C74 181.274 74 181.187 74 181.1C74 181.013 74 180.926 74 180.839C74 180.752 74 180.665 74 180.578C74 180.491 74 180.404 74 180.317C74 180.231 74 180.144 74 180.057C74 179.971 74 179.884 74 179.797C74 179.711 74 179.624 74 179.538C74 179.452 74 179.365 74 179.279C74 179.193 74 179.106 74 179.02C74 178.934 74 178.848 74 178.762C74 178.676 74 178.59 74 178.504C74 178.418 74 178.332 74 178.246C74 178.16 74 178.074 74 177.989C74 177.903 74 177.817 74 177.732C74 177.646 74 177.561 74 177.475C74 177.39 74 177.305 74 177.219C74 177.134 74 177.049 74 176.963C74 176.878 74 176.793 74 176.708C74 176.623 74 176.538 74 176.453C74 176.368 74 176.283 74 176.199C74 176.114 74 176.029 74 175.945C74 175.86 74 175.775 74 175.691C74 175.606 74 175.522 74 175.438C74 175.353 74 175.269 74 175.185C74 175.1 74 175.016 74 174.932C74 174.848 74 174.764 74 174.68C74 174.596 74 174.512 74 174.429C74 174.345 74 174.261 74 174.177C74 174.094 74 174.01 74 173.927C74 173.843 74 173.76 74 173.676C74 173.593 74 173.51 74 173.426C74 173.343 74 173.26 74 173.177C74 173.094 74 173.011 74 172.928C74 172.845 74 172.762 74 172.68C74 172.597 74 172.514 74 172.432C74 172.349 74 172.266 74 172.184C74 172.102 74 172.019 74 171.937C74 171.855 74 171.772 74 171.69C74 171.608 74 171.526 74 171.444C74 171.362 74 171.28 74 171.199C74 171.117 74 171.035 74 170.953C74 170.872 74 170.79 74 170.709C74 170.627 74 170.546 74 170.464C74 170.383 74 170.302 74 170.221C74 170.14 74 170.059 74 169.978C74 169.897 74 169.816 74 169.735C74 169.654 74 169.573 74 169.493C74 169.412 74 169.331 74 169.251C74 169.17 74 169.09 74 169.01C74 168.93 74 168.849 74 168.769C74 168.689 74 168.609 74 168.529C74 168.449 74 168.369 74 168.289C74 168.21 74 168.13 74 168.05C74 167.971 74 167.891 74 167.812C74 167.732 74 167.653 74 167.574C74 167.495 74 167.415 74 167.336C74 167.257 74 167.178 74 167.1C74 167.021 74 166.942 74 166.863C74 166.784 74 166.706 74 166.627C74 166.549 74 166.47 74 166.392C74 166.314 74 166.236 74 166.157C74 166.079 74 166.001 74 165.923C74 165.845 74 165.768 74 165.69C74 165.612 74 165.534 74 165.457C74 165.379 74 165.302 74 165.224C74 165.147 74 165.07 74 164.993C74 164.915 74 164.838 74 164.761C74 164.684 74 164.608 74 164.531C74 164.454 74 164.377 74 164.301C74 164.224 74 164.148 74 164.071C74 163.995 74 163.919 74 163.842C74 163.766 74 163.69 74 163.614C74 163.538 74 163.462 74 163.387C74 163.311 74 163.235 74 163.16C74 163.084 74 163.009 74 162.933C74 162.858 74 162.783 74 162.707C74 162.632 74 162.557 74 162.482C74 162.407 74 162.332 74 162.258C74 162.183 74 162.108 74 162.034C74 161.959 74 161.885 74 161.811C74 161.736 74 161.662 74 161.588C74 161.514 74 161.44 74 161.366C74 161.292 74 161.218 74 161.145C74 161.071 74 160.997 74 160.924C74 160.851 74 160.777 74 160.704C74 160.631 74 160.558 74 160.485C74 160.412 74 160.339 74 160.266C74 160.193 74 160.12 74 160.048C74 159.975 74 159.903 74 159.83C74 159.758 74 159.686 74 159.614C74 159.542 74 159.47 74 159.398C74 159.326 74 159.254 74 159.182C74 159.111 74 159.039 74 158.968C74 158.896 74 158.825 74 158.754C74 158.683 74 158.612 74 158.541C74 158.47 74 158.399 74 158.328C74 158.257 74 158.187 74 158.116C74 158.046 74 157.975 74 157.905C74 157.835 74 157.765 74 157.695C74 157.625 74 157.555 74 157.485C74 157.415 74 157.345 74 157.276C74 157.206 74 157.137 74 157.068C74 156.998 74 156.929 74 156.86C74 156.791 74 156.722 74 156.653C74 156.584 74 156.516 74 156.447C74 156.379 74 156.31 74 156.242C74 156.173 74 156.105 74 156.037C74 155.969 74 155.901 74 155.833C74 155.765 74 155.698 74 155.63C74 155.563 74 155.495 74 155.428C74 155.36 74 155.293 74 155.226C74 155.159 74 155.092 74 155.025C74 154.958 74 154.892 74 154.825C74 154.759 74 154.692 74 154.626C74 154.56 74 154.493 74 154.427C74 154.361 74 154.295 74 154.23C74 154.164 74 154.098 74 154.033C74 153.967 74 153.902 74 153.836C74 153.771 74 153.706 74 153.641C74 153.576 74 153.511 74 153.446C74 153.382 74 153.317 74 153.252C74 153.188 74 153.124 74 153.059C74 152.995 74 152.931 74 152.867C74 152.803 74 152.739 74 152.676C74 152.612 74 152.548 74 152.485C74 152.422 74 152.358 74 152.295C74 152.232 74 152.169 74 152.106C74 152.043 74 151.981 74 151.918C74 151.856 74 151.793 74 151.731C74 151.668 74 151.606 74 151.544C74 151.482 74 151.42 74 151.359C74 151.297 74 151.235 74 151.174C74 151.112 74 151.051 74 150.99C74 150.929 74 150.868 74 150.807C74 150.746 74 150.685 74 150.624C74 150.564 74 150.503 74 150.443C74 150.383 74 150.322 74 150.262C74 150.202 74 150.142 74 150.083C74 150.023 74 149.963 74 149.904C74 149.844 74 149.785 74 149.726C74 149.667 74 149.607 74 149.549C74 149.49 74 149.431 74 149.372C74 149.314 74 149.255 74 149.197C74 149.139 74 149.08 74 149.022C74 148.964 74 148.907 74 148.849C74 148.791 74 148.734 74 148.676C74 148.619 74 148.562 74 148.504C74 148.447 74 148.39 74 148.333C74 148.277 74 148.22 74 148.163C74 148.107 74 148.051 74 147.994C74 147.938 74 147.882 74 147.826C74 147.77 74 147.715 74 147.659C74 147.603 74 147.548 74 147.493C74 147.437 74 147.382 74 147.327C74 147.272 74 147.217 74 147.163C74 147.108 74 147.053 74 146.999C74 146.945 74 146.891 74 146.837C74 146.782 74 146.729 74 146.675C74 146.621 74 146.567 74 146.514C74 146.461 74 146.407 74 146.354C74 146.301 74 146.248 74 146.195C74 146.143 74 146.09 74 146.038C74 145.985 74 145.933 74 145.881C74 145.828 74 145.776 74 145.725C74 145.673 74 145.621 74 145.57C74 145.518 74 145.467 74 145.416C74 145.364 74 145.313 74 145.263C74 145.212 74 145.161 74 145.11C74 145.06 74 145.01 74 144.959C74 144.909 74 144.859 74 144.809C74 144.759 74 144.71 74 144.66C74 144.611 74 144.561 74 144.512C74 144.463 74 144.414 74 144.365C74 144.316 74 144.267 74 144.219C74 144.17 74 144.122 74 144.074C74 144.025 74 143.977 74 143.929C74 143.882 74 143.834 74 143.786C74 143.739 74 143.691 74 143.644C74 143.597 74 143.55 74 143.503C74 143.456 74 143.41 74 143.363C74 143.317 74 143.27 74 143.224C74 143.178 74 143.132 74 143.086C74 143.04 74 142.995 74 142.949C74 142.904 74 142.858 74 142.813C74 142.768 74 142.723 74 142.678C74 142.634 74 142.589 74 142.545C74 142.5 74 142.456 74 142.412C74 142.368 74 142.324 74 142.28C74 142.236 74 142.193 74 142.149C74 142.106 74 142.063 74 142.02C74 141.977 74 141.934 74 141.891C74 141.849 74 141.806 74 141.764C74 141.722 74 141.679 74 141.637C74 141.595 74 141.554 74 141.512C74 141.471 74 141.429 74 141.388C74 141.347 74 141.306 74 141.265C74 141.224 74 141.183 74 141.143C74 141.102 74 141.062 74 141.022C74 140.982 74 140.942 74 140.902C74 140.862 74 140.823 74 140.783C74 140.744 74 140.705 74 140.666C74 140.627 74 140.588 74 140.549C74 140.51 74 140.472 74 140.434C74 140.395 74 140.357 74 140.319C74 140.281 74 140.244 74 140.206C74 140.169 74 140.131 74 140.094C74 140.057 74 140.02 74 139.983C74 139.946 74 139.91 74 139.873C74 139.837 74 139.801 74 139.765C74 139.729 74 139.693 74 139.657C74 139.622 74 139.586 74 139.551C74 139.516 74 139.481 74 139.446C74 139.411 74 139.376 74 139.342C74 139.307 74 139.273 74 139.239C74 139.205 74 139.171 74 139.137C74 139.103 74 139.07 74 139.036C74 139.003 74 138.97 74 138.937C74 138.904 74 138.871 74 138.839C74 138.806 74 138.774 74 138.742C74 138.709 74 138.678 74 138.646C74 138.614 74 138.582 74 138.551C74 138.52 74 138.489 74 138.458C74 138.427 74 138.396 74 138.365C74 138.335 74 138.304 74 138.274C74 138.244 74 138.214 74 138.184C74 138.154 74 138.125 74 138.095C74 138.066 74 138.037 74 138.008C74 137.979 74 137.95 74 137.922C74 137.893 74 137.865 74 137.836C74 137.808 74 137.78 74 137.753C74 137.725 74 137.697 74 137.67C74 137.643 74 137.615 74 137.589C74 137.562 74 137.535 74 137.508C74 137.482 74 137.456 74 137.429C74 137.403 74 137.377 74 137.352C74 137.326 74 137.3 74 137.275C74 137.25 74 137.225 74 137.2C74 137.175 74 137.15 74 137.126C74 137.102 74 137.077 74 137.053C74 137.029 74 137.005 74 136.982C74 136.958 74 136.935 74 136.912C74 136.888 74 136.865 74 136.843C74 136.82 74 136.797 74 136.775C74 136.753 74 136.73 74 136.709C74 136.687 74 136.665 74 136.643C74 136.622 74 136.601 74 136.58C74 136.558 74 136.538 74 136.517C74 136.496 74 136.476 74 136.456C74 136.435 74 136.415 74 136.396C74 136.376 74 136.356 74 136.337C74 136.318 74 136.299 74 136.28C74 136.261 74 136.242 74 136.224C74 136.205 74 136.187 74 136.169C74 136.151 74 136.133 74 136.115C74 136.098 74 136.08 74 136.063C74 136.046 74 136.029 74 136.012C74 135.996 74 135.979 74 135.963C74 135.947 74 135.931 74 135.915C74 135.899 74 135.883 74 135.868C74 135.852 74 135.837 74 135.822C74 135.807 74 135.793 74 135.778C74 135.764 74 135.749 74 135.735C74 135.721 74 135.707 74 135.694C74 135.68 74 135.667 74 135.654C74 135.641 74 135.628 74 135.615C74 135.602 74 135.59 74 135.578C74 135.565 74 135.553 74 135.541C74 135.53 74 135.518 74 135.507C74 135.495 74 135.484 74 135.473C74 135.463 74 135.452 74 135.442C74 135.431 74 135.421 74 135.411C74 135.401 74 135.391 74 135.382C74 135.372 74 135.363 74 135.354C74 135.345 74 135.336 74 135.328C74 135.319 74 135.311 74 135.303C74 135.294 74 135.287 74 135.279C74 135.271 74 135.264 74 135.257C74 135.25 74 135.243 74 135.236C74 135.229 74 135.223 74 135.216C74 135.21 74 135.204 74 135.199C74 135.193 74 135.187 74 135.182C74 135.177 74 135.172 74 135.167C74 135.162 74 135.157 74 135.153C74 135.149 74 135.145 74 135.141C74 135.137 74 135.133 74 135.13C74 135.127 74 135.123 74 135.12C74 135.118 74 135.115 74 135.112C74 135.11 74 135.108 74 135.106C74 135.104 74 135.102 74 135.101C74 135.099 74 135.098 74 135.097C74 135.096 74 135.095 74 135.095C74 135.095 74 135.094 76 135.094Z" fill="white"/>
<path d="M35.1056 115.789C34.1176 115.295 33.7172 114.094 34.2111 113.106C34.7051 112.118 35.9065 111.717 36.8944 112.211L35.1056 115.789ZM75.1056 135.789L35.1056 115.789L36.8944 112.211L76.8944 132.211L75.1056 135.789Z" fill="white"/>
</svg>
